<svg id="图层_1" data-name="图层 1" xmlns="http://www.w3.org/2000/svg" viewBox="0 0 267.29 283.19"><defs><style>.cls-1{opacity:0.85;}.cls-10,.cls-11,.cls-12,.cls-13,.cls-14,.cls-15,.cls-16,.cls-17,.cls-18,.cls-19,.cls-2,.cls-20,.cls-21,.cls-22,.cls-23,.cls-24,.cls-25,.cls-26,.cls-27,.cls-28,.cls-29,.cls-3,.cls-30,.cls-31,.cls-32,.cls-33,.cls-34,.cls-35,.cls-36,.cls-37,.cls-38,.cls-39,.cls-4,.cls-40,.cls-41,.cls-42,.cls-43,.cls-44,.cls-45,.cls-46,.cls-47,.cls-48,.cls-49,.cls-5,.cls-50,.cls-51,.cls-52,.cls-53,.cls-54,.cls-55,.cls-56,.cls-57,.cls-58,.cls-59,.cls-6,.cls-60,.cls-61,.cls-62,.cls-63,.cls-64,.cls-65,.cls-66,.cls-67,.cls-7,.cls-8,.cls-9{fill:none;}.cls-2,.cls-25{stroke:#257f48;}.cls-10,.cls-11,.cls-12,.cls-13,.cls-14,.cls-15,.cls-16,.cls-17,.cls-18,.cls-19,.cls-2,.cls-20,.cls-21,.cls-22,.cls-23,.cls-24,.cls-25,.cls-26,.cls-27,.cls-28,.cls-29,.cls-3,.cls-30,.cls-31,.cls-32,.cls-33,.cls-34,.cls-35,.cls-36,.cls-37,.cls-38,.cls-39,.cls-4,.cls-40,.cls-41,.cls-42,.cls-43,.cls-44,.cls-45,.cls-46,.cls-47,.cls-48,.cls-49,.cls-5,.cls-50,.cls-51,.cls-52,.cls-53,.cls-54,.cls-55,.cls-56,.cls-57,.cls-58,.cls-59,.cls-6,.cls-60,.cls-61,.cls-62,.cls-63,.cls-64,.cls-65,.cls-66,.cls-67,.cls-68,.cls-69,.cls-7,.cls-70,.cls-71,.cls-8,.cls-9{stroke-opacity:0.8;}.cls-2{stroke-width:2px;}.cls-28,.cls-29,.cls-3,.cls-34,.cls-4,.cls-40,.cls-42,.cls-51,.cls-52,.cls-53,.cls-55,.cls-57,.cls-6,.cls-64,.cls-7,.cls-8{stroke:#cae063;}.cls-15,.cls-21,.cls-26,.cls-3,.cls-5{stroke-width:0.12px;}.cls-19,.cls-4,.cls-46{stroke-width:0.55px;}.cls-17,.cls-22,.cls-23,.cls-32,.cls-33,.cls-38,.cls-46,.cls-48,.cls-5,.cls-54,.cls-56,.cls-59,.cls-61,.cls-62,.cls-63,.cls-9{stroke:#ffa461;}.cls-12,.cls-32,.cls-6{stroke-width:0.23px;}.cls-33,.cls-7{stroke-width:1.21px;}.cls-24,.cls-37,.cls-68,.cls-69,.cls-70,.cls-71,.cls-8{stroke-width:0.01px;}.cls-27,.cls-9{stroke-width:0.44px;}.cls-10,.cls-30,.cls-31,.cls-35,.cls-36,.cls-39,.cls-44,.cls-45,.cls-49,.cls-50,.cls-58,.cls-60,.cls-65,.cls-66,.cls-67{stroke:#ffc274;}.cls-10,.cls-63{stroke-width:1.64px;}.cls-11,.cls-15,.cls-16,.cls-18,.cls-19,.cls-27{stroke:#cac250;}.cls-11,.cls-14,.cls-17,.cls-20{stroke-width:0.88px;}.cls-12,.cls-26{stroke:#5db0a9;}.cls-13{stroke:#2562ff;}.cls-14,.cls-37,.cls-41,.cls-43,.cls-47{stroke:#9292b9;}.cls-16,.cls-38{stroke-width:1.1px;}.cls-18,.cls-35{stroke-width:0.66px;}.cls-20{stroke:#ff864e;}.cls-21,.cls-24{stroke:#9274a6;}.cls-22,.cls-39{stroke-width:1.42px;}.cls-23,.cls-28,.cls-43,.cls-50{stroke-width:1.53px;}.cls-25{stroke-width:1.5px;}.cls-29,.cls-41{stroke-width:0.77px;}.cls-30,.cls-56{stroke-width:1.97px;}.cls-31{stroke-width:2.4px;}.cls-34{stroke-width:0.99px;}.cls-36,.cls-40,.cls-47{stroke-width:2.18px;}.cls-42,.cls-45{stroke-width:4.46px;}.cls-44{stroke-width:1.75px;}.cls-48{stroke-width:2.62px;}.cls-49{stroke-width:3.27px;}.cls-51{stroke-width:1.86px;}.cls-52{stroke-width:12.18px;}.cls-53{stroke-width:8.48px;}.cls-54{stroke-width:2.94px;}.cls-55{stroke-width:2.29px;}.cls-57{stroke-width:5.44px;}.cls-58{stroke-width:6.64px;}.cls-59{stroke-width:5.01px;}.cls-60{stroke-width:20px;}.cls-61{stroke-width:9px;}.cls-62{stroke-width:8px;}.cls-64{stroke-width:2.73px;}.cls-65{stroke-width:16.96px;}.cls-66{stroke-width:3.49px;}.cls-67{stroke-width:16.09px;}.cls-68{fill:#ffc274;}.cls-68,.cls-69,.cls-70,.cls-71{fill-opacity:0.8;stroke:#000;}.cls-69{fill:#bdce9c;}.cls-70{fill:#ff864e;}.cls-71{fill:#98aac9;}.cls-72,.cls-73,.cls-74,.cls-75,.cls-76,.cls-79,.cls-80{isolation:isolate;font-family:ArialMT, Arial;}.cls-72{font-size:30px;}.cls-73{font-size:11px;}.cls-74{font-size:8px;}.cls-75{font-size:9px;}.cls-76{font-size:7px;}.cls-77{letter-spacing:-0.02em;}.cls-78{letter-spacing:-0.04em;}.cls-79{font-size:10px;}.cls-80{font-size:6px;}</style></defs><title>small20_final</title><g id="edges" class="cls-1"><path class="cls-2" d="M73.45,263.34c-8-81.31-8-81.31-62.6-116.85" transform="translate(18.8 -0.41)"/><path class="cls-3" d="M228.21,192.59c-26,46.94-135.52,78.29-182.46,52.24" transform="translate(18.8 -0.41)"/><path class="cls-4" d="M228.21,192.59c-16.8,45.1-109.66,87.55-154.76,70.75" transform="translate(18.8 -0.41)"/><path class="cls-5" d="M228.21,192.59c-9.44,41-85.14,88.42-126.17,79" transform="translate(18.8 -0.41)"/><path class="cls-6" d="M215.43,104.53c-5.87,62-107.69,146.18-169.68,140.3" transform="translate(18.8 -0.41)"/><path class="cls-7" d="M215.43,104.53c3.37,60.16-81.82,155.44-142,158.81" transform="translate(18.8 -0.41)"/><path class="cls-5" d="M215.43,104.53c15.87,51.09-37,151.53-88,167.4" transform="translate(18.8 -0.41)"/><path class="cls-8" d="M215.43,104.53c-27.49,53.94-149.63,93.59-203.56,66.1" transform="translate(18.8 -0.41)"/><path class="cls-9" d="M215.43,104.53c10.73,56.09-57.3,156.31-113.39,167" transform="translate(18.8 -0.41)"/><path class="cls-3" d="M215.43,104.53C194.25,162.19,76,216.9,18.35,195.72" transform="translate(18.8 -0.41)"/><path class="cls-10" d="M215.43,104.53c20.17,15.06,27.84,67.89,12.78,88.06" transform="translate(18.8 -0.41)"/><path class="cls-9" d="M215.43,104.53c20.82,45.61-16.36,145.26-62,166.08" transform="translate(18.8 -0.41)"/><path class="cls-11" d="M176.46,261.05C147.08,284,68.65,274.22,45.75,244.83" transform="translate(18.8 -0.41)"/><path class="cls-12" d="M24.38,100.72C66.71,123.43,96.16,221,73.45,263.34" transform="translate(18.8 -0.41)"/><path class="cls-13" d="M24.38,100.72C24.1,93.35,34.73,81.88,42.1,81.6" transform="translate(18.8 -0.41)"/><path class="cls-14" d="M24.38,100.72c39-37.44,153.6-35.16,191.05,3.81" transform="translate(18.8 -0.41)"/><path class="cls-15" d="M199.31,243.93c-57.18,18.2-170.26-40.26-188.46-97.44" transform="translate(18.8 -0.41)"/><path class="cls-16" d="M199.31,243.93C178,273,102.5,284.63,73.45,263.34" transform="translate(18.8 -0.41)"/><path class="cls-17" d="M199.31,243.93c-24.66-31.1-15-114.74,16.12-139.4" transform="translate(18.8 -0.41)"/><path class="cls-18" d="M216.15,222.62c-29.64,38.52-131.88,51.85-170.4,22.21" transform="translate(18.8 -0.41)"/><path class="cls-19" d="M216.15,222.62c-20.39,36.68-106,61.12-142.7,40.72" transform="translate(18.8 -0.41)"/><path class="cls-20" d="M216.15,222.62c-13,32.61-81.49,62-114.11,48.95" transform="translate(18.8 -0.41)"/><path class="cls-21" d="M216.15,222.62c-63,6.6-167.44-78-174-141" transform="translate(18.8 -0.41)"/><path class="cls-22" d="M216.15,222.62c-3.59-8.42,3.64-26.44,12.06-30" transform="translate(18.8 -0.41)"/><path class="cls-23" d="M216.15,222.62c-23.76-23.48-24.19-94.33-.72-118.09" transform="translate(18.8 -0.41)"/><path class="cls-24" d="M216.15,222.62c-62.73,14-177.8-59.16-191.77-121.9" transform="translate(18.8 -0.41)"/><path class="cls-25" d="M29.19,220.44c17.43-.27,44,25.47,44.26,42.9" transform="translate(18.8 -0.41)"/><path class="cls-4" d="M29.19,220.44C43.26,160,155,90.47,215.43,104.53" transform="translate(18.8 -0.41)"/><path class="cls-26" d="M29.19,220.44c24.78-41.14,20-91.7-4.81-119.72" transform="translate(18.8 -0.41)"/><path class="cls-27" d="M29.19,220.44c37.83-37,150-35.65,187,2.18" transform="translate(18.8 -0.41)"/><path class="cls-28" d="M231,133.21C216.25,192.58,105.12,259.55,45.75,244.83" transform="translate(18.8 -0.41)"/><path class="cls-29" d="M231,133.21c-5.48,57.53-100,135.61-157.52,130.13" transform="translate(18.8 -0.41)"/><path class="cls-3" d="M231,133.21c-30,55-157.59,92.53-212.62,62.51" transform="translate(18.8 -0.41)"/><path class="cls-30" d="M231,133.21c11.32,12.42,9.67,48-2.76,59.38" transform="translate(18.8 -0.41)"/><path class="cls-31" d="M231,133.21c-8.84-2.63-18.17-19.84-15.54-28.68" transform="translate(18.8 -0.41)"/><path class="cls-17" d="M231,133.21c14.67,36.47-18,113.17-54.51,127.84" transform="translate(18.8 -0.41)"/><path class="cls-32" d="M231,133.21c15.81,28.47-3.19,94.91-31.66,110.72" transform="translate(18.8 -0.41)"/><path class="cls-33" d="M231,133.21c14.92,20.84,6,74.49-14.82,89.41" transform="translate(18.8 -0.41)"/><path class="cls-34" d="M232.92,163.86c-12,51.79-107.68,111.48-159.47,99.48" transform="translate(18.8 -0.41)"/><path class="cls-32" d="M232.92,163.86C228.29,211.58,149.76,276.2,102,271.57" transform="translate(18.8 -0.41)"/><path class="cls-35" d="M232.92,163.86c4.81,6.69,2,23.92-4.71,28.73" transform="translate(18.8 -0.41)"/><path class="cls-36" d="M232.92,163.86c-15.36-8.37-25.86-44-17.49-59.33" transform="translate(18.8 -0.41)"/><path class="cls-37" d="M232.92,163.86c-54.33,29.08-179.46-8.8-208.54-63.14" transform="translate(18.8 -0.41)"/><path class="cls-38" d="M232.92,163.86c8.4,15.1-1.66,50.36-16.77,58.76" transform="translate(18.8 -0.41)"/><path class="cls-39" d="M232.92,163.86c-6.52-5.74-7.69-24.13-1.95-30.65" transform="translate(18.8 -0.41)"/><path class="cls-40" d="M187.57,79.39c4.72,61.45-80.37,160.72-141.82,165.44" transform="translate(18.8 -0.41)"/><path class="cls-41" d="M187.57,79.39C160.36,102,85.65,95.06,63.06,67.85" transform="translate(18.8 -0.41)"/><path class="cls-42" d="M187.57,79.39c14,59.62-54.51,170-114.12,184" transform="translate(18.8 -0.41)"/><path class="cls-5" d="M187.57,79.39c21.33,55.54-30,170.85-85.53,192.18" transform="translate(18.8 -0.41)"/><path class="cls-43" d="M187.57,79.39C158.92,108.93,71.64,110.25,42.1,81.6" transform="translate(18.8 -0.41)"/><path class="cls-44" d="M187.57,79.39c30.76,14.51,55.15,82.43,40.64,113.2" transform="translate(18.8 -0.41)"/><path class="cls-45" d="M187.57,79.39c10.6-.54,27.32,14.54,27.86,25.14" transform="translate(18.8 -0.41)"/><path class="cls-46" d="M187.57,79.39c34.11,38.55,27.44,147.55-11.11,181.66" transform="translate(18.8 -0.41)"/><path class="cls-47" d="M187.57,79.39C159.2,116.3,61.28,129.1,24.38,100.72" transform="translate(18.8 -0.41)"/><path class="cls-5" d="M187.57,79.39c35.25,30.56,42.3,129.28,11.74,164.54" transform="translate(18.8 -0.41)"/><path class="cls-48" d="M187.57,79.39c34.36,22.93,51.51,108.87,28.58,143.23" transform="translate(18.8 -0.41)"/><path class="cls-40" d="M187.57,79.39c-3.47,59.89-98.5,144.52-158.38,141.05" transform="translate(18.8 -0.41)"/><path class="cls-49" d="M187.57,79.39c19.44,2.09,45.48,34.37,43.4,53.82" transform="translate(18.8 -0.41)"/><path class="cls-50" d="M187.57,79.39c26,7.83,53.17,58.5,45.35,84.47" transform="translate(18.8 -0.41)"/><path class="cls-51" d="M125,49.65c-3.47,42.21-72,100.31-114.18,96.84" transform="translate(18.8 -0.41)"/><path class="cls-52" d="M125,49.65c23.18,54.89-24.39,172-79.28,195.18" transform="translate(18.8 -0.41)"/><path class="cls-53" d="M125,49.65c32.42,53.06,1.47,181.27-51.58,213.69" transform="translate(18.8 -0.41)"/><path class="cls-54" d="M125,49.65C170,93.63,171.38,227,127.4,271.93" transform="translate(18.8 -0.41)"/><path class="cls-55" d="M125,49.65c1.56,46.83-66.34,119.42-113.16,121" transform="translate(18.8 -0.41)"/><path class="cls-4" d="M125,49.65c-7.31,37.11-73.93,81.82-111,74.51" transform="translate(18.8 -0.41)"/><path class="cls-56" d="M125,49.65c39.79,49,26,182.13-23,221.92" transform="translate(18.8 -0.41)"/><path class="cls-37" d="M125,49.65c-10.2,23-59.95,42.15-82.93,31.95" transform="translate(18.8 -0.41)"/><path class="cls-57" d="M125,49.65C132.91,100.2,68.9,187.84,18.35,195.72" transform="translate(18.8 -0.41)"/><path class="cls-58" d="M125,49.65c49.22,8,111.13,93.71,103.18,142.94" transform="translate(18.8 -0.41)"/><path class="cls-59" d="M125,49.65c49.88,38.51,66.93,171.09,28.42,221" transform="translate(18.8 -0.41)"/><path class="cls-60" d="M125,49.65c31.27,45.72,54.59,54.88,90.4,54.88" transform="translate(18.8 -0.41)"/><path class="cls-61" d="M125,49.65c52.57,32,83.42,158.83,51.43,211.4" transform="translate(18.8 -0.41)"/><path class="cls-14" d="M125,49.65c-9.92,30.35-70.31,61-100.65,51.07" transform="translate(18.8 -0.41)"/><path class="cls-62" d="M125,49.65c53.71,24,98.28,140.57,74.28,194.28" transform="translate(18.8 -0.41)"/><path class="cls-63" d="M125,49.65c52.82,16.37,107.49,120.15,91.12,173" transform="translate(18.8 -0.41)"/><path class="cls-64" d="M125,49.65C140,103,82.51,205.45,29.19,220.44" transform="translate(18.8 -0.41)"/><path class="cls-65" d="M125,49.65c30.34,71.47,35.9,61.15,105.94,83.56" transform="translate(18.8 -0.41)"/><path class="cls-66" d="M125,49.65c44.42,1.27,109.16,69.79,107.89,114.21" transform="translate(18.8 -0.41)"/><path class="cls-67" d="M125,49.65c18.46-6.56,56,11.29,62.54,29.74" transform="translate(18.8 -0.41)"/></g><g id="nodes"><circle class="cls-68" cx="144.6" cy="50" r="50"/><circle class="cls-68" cx="207.14" cy="79.75" r="18.16"/><circle class="cls-68" cx="252.5" cy="164.21" r="13.12"/><circle class="cls-68" cx="250.54" cy="133.56" r="15.52"/><circle class="cls-69" cx="48.76" cy="220.79" r="11.97"/><circle class="cls-70" cx="235.73" cy="222.97" r="12.93"/><circle class="cls-70" cx="218.88" cy="244.28" r="12.88"/><circle class="cls-71" cx="43.95" cy="101.08" r="11.72"/><circle class="cls-70" cx="196.04" cy="261.4" r="12.38"/><circle class="cls-68" cx="235.01" cy="104.88" r="16.91"/><circle class="cls-70" cx="173.03" cy="270.97" r="11.38"/><circle class="cls-68" cx="247.79" cy="192.94" r="13.29"/><circle class="cls-69" cx="37.93" cy="196.07" r="11.43"/><circle class="cls-71" cx="61.68" cy="81.95" r="11.17"/><circle class="cls-70" cx="121.62" cy="271.92" r="9.5"/><circle class="cls-69" cx="33.57" cy="124.51" r="10.33"/><circle class="cls-69" cx="31.44" cy="170.98" r="10.78"/><circle class="cls-70" cx="146.97" cy="272.28" r="10.91"/><circle class="cls-69" cx="93.02" cy="263.69" r="14.8"/><circle class="cls-71" cx="82.63" cy="68.2" r="10.61"/><circle class="cls-69" cx="65.32" cy="245.18" r="13.39"/><circle class="cls-69" cx="30.42" cy="146.85" r="10.63"/></g><g id="node-labels"><text class="cls-72" transform="translate(105.49 54.79)">Africa</text><text class="cls-73" transform="translate(186.2 80.98)">America</text><text class="cls-74" transform="translate(236.16 164.9)">Australia</text><text class="cls-75" transform="translate(238.02 134.46)">China</text><text class="cls-76" transform="translate(33.01 221.67)">Congress</text><text class="cls-74" transform="translate(218.95 223.69)">Covid-19</text><text class="cls-74" transform="translate(182.77 245.35)">Democratic republic</text><text class="cls-76" transform="translate(22.17 101.91)">Donald<tspan class="cls-77" x="22.18" y="0"> </tspan><tspan class="cls-78" x="24" y="0">T</tspan><tspan x="28.02" y="0">rump</tspan></text><text class="cls-76" transform="translate(186.32 261.91)">Ebola</text><text class="cls-79" transform="translate(218.11 106.41)">Europe</text><text class="cls-76" transform="translate(151.44 271.82)">Human rights</text><text class="cls-74" transform="translate(238.34 193.63)">India</text><text class="cls-76" transform="translate(0 196.93)">International community</text><text class="cls-76" transform="translate(45.73 82.46)">Joe Biden</text><text class="cls-76" transform="translate(103.73 272.43)">New cases</text><text class="cls-80" transform="translate(19.29 124.84)">Red Cross</text><text class="cls-80" transform="translate(9.66 171.63)">Security council</text><text class="cls-76" transform="translate(121.69 277.81)">Sexual violence</text><text class="cls-75" transform="translate(66.49 264.59)">Social media</text><text class="cls-80" transform="translate(66.85 68.55)">US senator</text><text class="cls-74" transform="translate(19.27 246.27)"><tspan class="cls-77">W</tspan><tspan x="7.41" y="0">orld health organization</tspan></text><text class="cls-80" transform="translate(20.82 147.47)">Zawya</text></g></svg>