<svg id="图层_1" data-name="图层 1" xmlns="http://www.w3.org/2000/svg" viewBox="0 0 285.53 317.13"><defs><style>.cls-1{opacity:0.8;}.cls-10,.cls-100,.cls-101,.cls-102,.cls-103,.cls-104,.cls-105,.cls-106,.cls-107,.cls-108,.cls-109,.cls-11,.cls-12,.cls-13,.cls-14,.cls-15,.cls-16,.cls-17,.cls-18,.cls-19,.cls-2,.cls-20,.cls-21,.cls-22,.cls-23,.cls-24,.cls-25,.cls-26,.cls-27,.cls-28,.cls-29,.cls-3,.cls-30,.cls-31,.cls-32,.cls-33,.cls-34,.cls-35,.cls-36,.cls-37,.cls-38,.cls-39,.cls-4,.cls-40,.cls-41,.cls-42,.cls-43,.cls-44,.cls-45,.cls-46,.cls-47,.cls-48,.cls-49,.cls-5,.cls-50,.cls-51,.cls-52,.cls-53,.cls-54,.cls-55,.cls-56,.cls-57,.cls-58,.cls-59,.cls-6,.cls-60,.cls-61,.cls-62,.cls-63,.cls-64,.cls-65,.cls-66,.cls-67,.cls-68,.cls-69,.cls-7,.cls-70,.cls-71,.cls-72,.cls-73,.cls-74,.cls-75,.cls-76,.cls-77,.cls-78,.cls-79,.cls-8,.cls-80,.cls-81,.cls-82,.cls-83,.cls-84,.cls-85,.cls-86,.cls-87,.cls-88,.cls-89,.cls-9,.cls-90,.cls-91,.cls-92,.cls-93,.cls-94,.cls-95,.cls-96,.cls-97,.cls-98,.cls-99{fill:none;stroke-opacity:0.5;}.cls-2,.cls-40,.cls-71,.cls-84,.cls-92{stroke:#faa425;}.cls-109,.cls-2{stroke-width:1.5px;}.cls-17,.cls-20,.cls-3{stroke:#0408ff;}.cls-3{stroke-width:0.09px;}.cls-10,.cls-105,.cls-35,.cls-4,.cls-48,.cls-6,.cls-65,.cls-74,.cls-87,.cls-94{stroke:#42799e;}.cls-4{stroke-width:0.1px;}.cls-102,.cls-107,.cls-5,.cls-51,.cls-70,.cls-77,.cls-8{stroke:#7f6086;}.cls-14,.cls-5,.cls-6{stroke-width:0.05px;}.cls-15,.cls-16,.cls-28,.cls-7,.cls-73,.cls-9{stroke:#5a259b;}.cls-7{stroke-width:0.34px;}.cls-8{stroke-width:1.21px;}.cls-55,.cls-9{stroke-width:0.68px;}.cls-10,.cls-61{stroke-width:0.8px;}.cls-11,.cls-12,.cls-21,.cls-23,.cls-29,.cls-30,.cls-37,.cls-43,.cls-45,.cls-47,.cls-59,.cls-75,.cls-82,.cls-86,.cls-90,.cls-91,.cls-93{stroke:#98963a;}.cls-11,.cls-110,.cls-114,.cls-115,.cls-116,.cls-118{stroke-width:0.01px;}.cls-12{stroke-width:0.02px;}.cls-108,.cls-109,.cls-13,.cls-19,.cls-25,.cls-27{stroke:#fab90d;}.cls-13{stroke-width:0.03px;}.cls-14,.cls-55,.cls-61,.cls-83,.cls-96{stroke:#bdbd3e;}.cls-15{stroke-width:0.06px;}.cls-16{stroke-width:1.17px;}.cls-17,.cls-18{stroke-width:0.08px;}.cls-18,.cls-24,.cls-39,.cls-46,.cls-58,.cls-66,.cls-67,.cls-69,.cls-81,.cls-88{stroke:#b04237;}.cls-19{stroke-width:3.32px;}.cls-20{stroke-width:2.08px;}.cls-21{stroke-width:0.14px;}.cls-100,.cls-104,.cls-106,.cls-22,.cls-33,.cls-42,.cls-44,.cls-49,.cls-50,.cls-52,.cls-89,.cls-98{stroke:#bdd225;}.cls-22,.cls-23,.cls-24{stroke-width:0.15px;}.cls-25,.cls-32,.cls-39,.cls-80{stroke-width:2px;}.cls-103,.cls-26,.cls-32,.cls-41,.cls-54,.cls-56,.cls-57,.cls-60,.cls-78,.cls-79,.cls-85,.cls-95,.cls-99{stroke:#d57d22;}.cls-26{stroke-width:0.19px;}.cls-27,.cls-29{stroke-width:0.2px;}.cls-28{stroke-width:1.44px;}.cls-30,.cls-31{stroke-width:0.22px;}.cls-31,.cls-34,.cls-36,.cls-72,.cls-76{stroke:#d5693a;}.cls-33{stroke-width:0.24px;}.cls-34{stroke-width:0.25px;}.cls-35{stroke-width:1.3px;}.cls-36{stroke-width:0.27px;}.cls-37{stroke-width:0.28px;}.cls-38,.cls-53,.cls-63,.cls-68{stroke:#80eb3e;}.cls-38{stroke-width:0.29px;}.cls-40,.cls-42{stroke-width:0.3px;}.cls-41{stroke-width:2.35px;}.cls-43{stroke-width:0.31px;}.cls-44{stroke-width:0.42px;}.cls-45{stroke-width:0.44px;}.cls-46{stroke-width:0.49px;}.cls-47{stroke-width:0.52px;}.cls-48{stroke-width:0.53px;}.cls-49{stroke-width:0.56px;}.cls-50{stroke-width:5.1px;}.cls-51{stroke-width:1.98px;}.cls-52{stroke-width:5.03px;}.cls-53,.cls-54{stroke-width:0.67px;}.cls-56{stroke-width:0.74px;}.cls-57{stroke-width:4.23px;}.cls-58{stroke-width:0.75px;}.cls-59{stroke-width:0.77px;}.cls-60{stroke-width:0.78px;}.cls-101,.cls-62{stroke:#7f4c9e;}.cls-62{stroke-width:2.45px;}.cls-63,.cls-64{stroke-width:0.87px;}.cls-64,.cls-80,.cls-97{stroke:#257f48;}.cls-65,.cls-66{stroke-width:0.88px;}.cls-67,.cls-68{stroke-width:0.89px;}.cls-69{stroke-width:0.91px;}.cls-70,.cls-71{stroke-width:0.92px;}.cls-72{stroke-width:0.93px;}.cls-73{stroke-width:2.85px;}.cls-74{stroke-width:1.06px;}.cls-75{stroke-width:1.07px;}.cls-76{stroke-width:1.2px;}.cls-77{stroke-width:7.74px;}.cls-78{stroke-width:1.26px;}.cls-79{stroke-width:5.93px;}.cls-81{stroke-width:1.37px;}.cls-82{stroke-width:1.39px;}.cls-83{stroke-width:1.47px;}.cls-84{stroke-width:1.53px;}.cls-85{stroke-width:6.61px;}.cls-86{stroke-width:1.65px;}.cls-87{stroke-width:4.44px;}.cls-88{stroke-width:1.78px;}.cls-89{stroke-width:1.79px;}.cls-90{stroke-width:1.87px;}.cls-91{stroke-width:2.13px;}.cls-92{stroke-width:12.52px;}.cls-93{stroke-width:2.32px;}.cls-94{stroke-width:2.33px;}.cls-95{stroke-width:6.22px;}.cls-96{stroke-width:2.77px;}.cls-97{stroke-width:2.93px;}.cls-98{stroke-width:2.94px;}.cls-99{stroke-width:7.18px;}.cls-100{stroke-width:16.8px;}.cls-101{stroke-width:3.2px;}.cls-102{stroke-width:3.23px;}.cls-103{stroke-width:9.04px;}.cls-104{stroke-width:14.69px;}.cls-105{stroke-width:4.97px;}.cls-106{stroke-width:6.05px;}.cls-107{stroke-width:20px;}.cls-108{stroke-width:12.36px;}.cls-110,.cls-117{fill:#ffc274;}.cls-110,.cls-111,.cls-112,.cls-113,.cls-114,.cls-115,.cls-116,.cls-117,.cls-118,.cls-119{fill-opacity:0.8;stroke:#000;stroke-opacity:0.8;}.cls-111,.cls-115{fill:#98aac9;}.cls-111{stroke-width:0.01px;}.cls-112,.cls-114,.cls-119{fill:#bdce9c;}.cls-112,.cls-113{stroke-width:0.01px;}.cls-113,.cls-118{fill:#fa903e;}.cls-116{fill:#b04237;}.cls-117,.cls-119{stroke-width:0.01px;}.cls-120,.cls-121,.cls-122,.cls-123,.cls-124,.cls-125,.cls-126,.cls-127{isolation:isolate;font-family:ArialMT, Arial;}.cls-120{font-size:9px;}.cls-121{font-size:6px;}.cls-122{font-size:7px;}.cls-123{font-size:10px;}.cls-124,.cls-125{font-size:12px;}.cls-125{letter-spacing:-0.02em;}.cls-126{font-size:8px;}.cls-127{font-size:21px;}</style></defs><title>us_final</title><g id="edges" class="cls-1"><path class="cls-2" d="M159.68,60.29c14.3,65.8,66,111.1,119.1,137.9" transform="translate(-10.98 -10.29)"/><path class="cls-3" d="M146.18,308c-17.9,8.3-57.2-6-65.5-23.9" transform="translate(-10.98 -10.29)"/><path class="cls-4" d="M183.28,311.69c-17.1,12.8-62.1,6.4-74.9-10.7" transform="translate(-10.98 -10.29)"/><path class="cls-5" d="M245.68,112.09c10.3,65.2-72,178.6-137.3,188.9" transform="translate(-10.98 -10.29)"/><path class="cls-6" d="M108.38,301c21.4-19.6,83-17,102.7,4.4" transform="translate(-10.98 -10.29)"/><path class="cls-7" d="M146.18,308c-57.5-27.6-102.4-155.2-74.8-212.7" transform="translate(-10.98 -10.29)"/><path class="cls-7" d="M146.18,308c-56.1-34.7-88.2-171-53.4-227.1" transform="translate(-10.98 -10.29)"/><path class="cls-8" d="M159.68,60.29c21.1,59.6-36.7,180.5-96.3,201.6" transform="translate(-10.98 -10.29)"/><path class="cls-9" d="M146.18,308c-56.9-20.5-111.7-136.7-91.2-193.7" transform="translate(-10.98 -10.29)"/><path class="cls-10" d="M146.18,308c8.2-6.7,30.4-4.4,37.1,3.7" transform="translate(-10.98 -10.29)"/><path class="cls-11" d="M183.28,311.69c-57.7,3-148.8-78.9-151.8-136.6" transform="translate(-10.98 -10.29)"/><path class="cls-12" d="M71.38,95.29c70.8-4.1,183.1,95.9,187.2,166.7" transform="translate(-10.98 -10.29)"/><path class="cls-13" d="M245.68,112.09c8.3.8,19.5,14.5,18.7,22.8" transform="translate(-10.98 -10.29)"/><path class="cls-14" d="M276.48,166.09c14.8,41-24.4,124.6-65.4,139.4" transform="translate(-10.98 -10.29)"/><path class="cls-15" d="M108.38,301c-48-26.6-80.1-138.6-53.4-186.7" transform="translate(-10.98 -10.29)"/><path class="cls-16" d="M146.18,308c-54.4-11.4-119-110.2-107.6-164.7" transform="translate(-10.98 -10.29)"/><path class="cls-17" d="M63.38,262c25.8-7.4,75.5,20.3,82.8,46.1" transform="translate(-10.98 -10.29)"/><path class="cls-18" d="M31.48,175.09c-6.6-31.1,30.2-87.6,61.3-94.2" transform="translate(-10.98 -10.29)"/><path class="cls-19" d="M159.68,60.29c31.4,44.5,31.4,42.8,86,51.8" transform="translate(-10.98 -10.29)"/><path class="cls-20" d="M146.18,308c-13.8-20.5-21.7-19.3-37.8-7" transform="translate(-10.98 -10.29)"/><path class="cls-21" d="M183.28,311.69c-62.6-4.7-149.5-105.8-144.8-168.4" transform="translate(-10.98 -10.29)"/><path class="cls-21" d="M183.28,311.69c-42.2,12.9-125-31-137.9-73.2" transform="translate(-10.98 -10.29)"/><path class="cls-22" d="M275,229c-20.9-16.7-27.3-73.1-10.6-94" transform="translate(-10.98 -10.29)"/><path class="cls-23" d="M211.08,305.39c-46.5,19.7-145.9-20.4-165.7-66.9" transform="translate(-10.98 -10.29)"/><path class="cls-24" d="M55,114.29c-.5-7.1,9.3-18.5,16.4-19.1" transform="translate(-10.98 -10.29)"/><path class="cls-16" d="M146.18,308c-49.5-3.6-118.3-83.3-114.7-132.9" transform="translate(-10.98 -10.29)"/><path class="cls-25" d="M159.68,60.29c34.3,57.4,48.4,67.7,104.8,74.6" transform="translate(-10.98 -10.29)"/><path class="cls-26" d="M222.68,88.09c-28.3,38.8-128.9,54.5-167.7,26.2" transform="translate(-10.98 -10.29)"/><path class="cls-27" d="M222.68,88.09c9.4.2,23.2,14.7,23,24.1" transform="translate(-10.98 -10.29)"/><path class="cls-28" d="M146.18,308c-21.6-74.3-26.3-79.5-111.4-100.2" transform="translate(-10.98 -10.29)"/><path class="cls-29" d="M92.78,81c69.4,3.1,168.9,111.7,165.8,181.1" transform="translate(-10.98 -10.29)"/><path class="cls-30" d="M55,114.29c70.3-11.2,192.4,77.4,203.6,147.7" transform="translate(-10.98 -10.29)"/><path class="cls-31" d="M276.48,166.09c-40,56.7-184.9,81.7-241.6,41.8" transform="translate(-10.98 -10.29)"/><path class="cls-32" d="M222.68,88.09c-28.8,31.7-119.6,36-151.3,7.2" transform="translate(-10.98 -10.29)"/><path class="cls-33" d="M222.68,88.09c41.2,45.8,34.2,176.2-11.6,217.4" transform="translate(-10.98 -10.29)"/><path class="cls-34" d="M276.48,166.09c-52.1,43-194.9,29.4-237.9-22.7" transform="translate(-10.98 -10.29)"/><path class="cls-35" d="M275,229c-18.9,47.7-118.9,90.9-166.6,72" transform="translate(-10.98 -10.29)"/><path class="cls-36" d="M276.48,166.09c-47.2,50.8-194.2,56.3-245,9.1" transform="translate(-10.98 -10.29)"/><path class="cls-37" d="M183.28,311.69c-50.5,8.9-139.5-53.4-148.4-103.9" transform="translate(-10.98 -10.29)"/><path class="cls-38" d="M183.28,311.69c5.1-25,50.3-54.8,75.3-49.7" transform="translate(-10.98 -10.29)"/><path class="cls-39" d="M92.78,81c13.8,37-21,113.1-57.9,126.9" transform="translate(-10.98 -10.29)"/><path class="cls-40" d="M276.48,166.09c-8.6-3.8-15.9-22.5-12.1-31.1" transform="translate(-10.98 -10.29)"/><path class="cls-41" d="M159.68,60.29c-9.3,17.5-49.4,29.9-66.9,20.7" transform="translate(-10.98 -10.29)"/><path class="cls-42" d="M245.68,112.09c29.2,17.5,46.8,87.6,29.3,116.9" transform="translate(-10.98 -10.29)"/><path class="cls-43" d="M275,229c-66.1,6.8-175.4-82-182.2-148" transform="translate(-10.98 -10.29)"/><path class="cls-44" d="M222.68,88.09c36.9,52.6,13.2,186.8-39.4,223.7" transform="translate(-10.98 -10.29)"/><path class="cls-45" d="M275,229c-67.5,14-189.7-66.2-203.7-133.7" transform="translate(-10.98 -10.29)"/><path class="cls-46" d="M92.78,81c22,41-6.4,135.5-47.4,157.5" transform="translate(-10.98 -10.29)"/><path class="cls-47" d="M38.58,143.29c67.7-20.2,199.7,51,220,118.7" transform="translate(-10.98 -10.29)"/><path class="cls-48" d="M108.38,301c22.5-28.1,98.5-36.5,126.7-14" transform="translate(-10.98 -10.29)"/><path class="cls-49" d="M222.68,88.09c42.3,37.3,49.7,156.7,12.4,198.9" transform="translate(-10.98 -10.29)"/><path class="cls-50" d="M159.68,60.29c59.3,38.7,90.2,185.8,51.4,245.1" transform="translate(-10.98 -10.29)"/><path class="cls-51" d="M159.68,60.29c29,60.5-18.4,194.8-79,223.8" transform="translate(-10.98 -10.29)"/><path class="cls-52" d="M159.68,60.29c55,45.5,69.2,196.4,23.6,251.4" transform="translate(-10.98 -10.29)"/><path class="cls-53" d="M275,229c2.5,28.1-35.9,74-63.9,76.5" transform="translate(-10.98 -10.29)"/><path class="cls-54" d="M222.68,88.09c-25.8,47.9-136.3,81.1-184.2,55.3" transform="translate(-10.98 -10.29)"/><path class="cls-55" d="M276.48,166.09c10.5,47.8-45.4,135.2-93.2,145.7" transform="translate(-10.98 -10.29)"/><path class="cls-56" d="M222.68,88.09c-20.8,55.7-135.6,107.9-191.2,87.1" transform="translate(-10.98 -10.29)"/><path class="cls-57" d="M71.38,95.29c10.7-24.6,63.6-45.6,88.3-34.9" transform="translate(-10.98 -10.29)"/><path class="cls-58" d="M31.48,175.09c-4.9-7.8-.7-26.9,7.1-31.8" transform="translate(-10.98 -10.29)"/><path class="cls-59" d="M275,229c-66.9,21.1-199-47.7-220-114.6" transform="translate(-10.98 -10.29)"/><path class="cls-59" d="M31.48,175.09c62.8-28,199.1,24.1,227.1,86.9" transform="translate(-10.98 -10.29)"/><path class="cls-60" d="M222.68,88.09c-13.6,61.5-126.3,133.3-187.8,119.7" transform="translate(-10.98 -10.29)"/><path class="cls-61" d="M276.48,166.09c15.9,32.5-8.9,105-41.4,120.9" transform="translate(-10.98 -10.29)"/><path class="cls-62" d="M276.48,166.09c-6.6,60.6-107.5,141.5-168.1,134.9" transform="translate(-10.98 -10.29)"/><path class="cls-63" d="M275,229c-1.8,34.9-56.8,84.5-91.7,82.8" transform="translate(-10.98 -10.29)"/><path class="cls-64" d="M211.08,305.39c.8-18.2,29.3-44.2,47.5-43.4" transform="translate(-10.98 -10.29)"/><path class="cls-65" d="M108.38,301c22.2-37.8,112.3-61.2,150.2-39" transform="translate(-10.98 -10.29)"/><path class="cls-66" d="M38.58,143.29c20.4,17.7,24.5,74.8,6.9,95.2" transform="translate(-10.98 -10.29)"/><path class="cls-67" d="M31.48,175.09c15.5,9.9,23.8,47.9,13.9,63.4" transform="translate(-10.98 -10.29)"/><path class="cls-68" d="M258.58,262c.3,9.7-13.8,24.7-23.5,25" transform="translate(-10.98 -10.29)"/><path class="cls-69" d="M31.48,175.09c7.2,5.9,9.2,25.5,3.4,32.7" transform="translate(-10.98 -10.29)"/><path class="cls-70" d="M245.68,112.09c19.3,59.1-40.4,176.6-99.5,195.9" transform="translate(-10.98 -10.29)"/><path class="cls-71" d="M245.68,112.09c16.9,4.6,35.4,37,30.8,53.9" transform="translate(-10.98 -10.29)"/><path class="cls-72" d="M276.48,166.09c-55.2,26.8-178.2-15.6-205.1-70.8" transform="translate(-10.98 -10.29)"/><path class="cls-73" d="M146.18,308c-24.4-33.5-41.4-70.9-100.8-69.5" transform="translate(-10.98 -10.29)"/><path class="cls-74" d="M211.08,305.39c-12.5,13.5-51.4,15-64.9,2.6" transform="translate(-10.98 -10.29)"/><path class="cls-75" d="M34.88,207.79c55.6-33.9,189.8-1.4,223.7,54.2" transform="translate(-10.98 -10.29)"/><path class="cls-76" d="M276.48,166.09c-54.6,34-187.5,2.9-221.5-51.7" transform="translate(-10.98 -10.29)"/><path class="cls-77" d="M159.68,60.29c37.9,58.4,7.1,202.8-51.2,240.7" transform="translate(-10.98 -10.29)"/><path class="cls-78" d="M222.68,88.09c-5.4,65.5-111.7,155.8-177.3,150.4" transform="translate(-10.98 -10.29)"/><path class="cls-79" d="M55,114.29c10.1-31.7,72.9-64.1,104.7-54" transform="translate(-10.98 -10.29)"/><path class="cls-80" d="M275,229c-23.6-3.3-59.4,9.7-39.9,58" transform="translate(-10.98 -10.29)"/><path class="cls-81" d="M34.88,207.79c8.2,4,14.6,22.4,10.5,30.7" transform="translate(-10.98 -10.29)"/><path class="cls-82" d="M275,229c-59.5,37.9-205.6,5.6-243.6-53.8" transform="translate(-10.98 -10.29)"/><path class="cls-83" d="M276.48,166.09c15.6,22.8,4.9,80.3-17.9,96" transform="translate(-10.98 -10.29)"/><path class="cls-84" d="M222.68,88.09c10.3,42.6,19.4,46.9,53.8,78" transform="translate(-10.98 -10.29)"/><path class="cls-85" d="M159.68,60.29c-2.7,48.6-79.6,117.5-128.2,114.8" transform="translate(-10.98 -10.29)"/><path class="cls-86" d="M275,229c-52.3,43.8-196.4,31.1-240.2-21.2" transform="translate(-10.98 -10.29)"/><path class="cls-87" d="M146.18,308c13.3-31.7,80.7-59.3,112.4-46" transform="translate(-10.98 -10.29)"/><path class="cls-88" d="M34.88,207.79c-12.2-13.6-10-52.3,3.7-64.5" transform="translate(-10.98 -10.29)"/><path class="cls-89" d="M222.68,88.09c42,27.6,63.5,132,35.9,174" transform="translate(-10.98 -10.29)"/><path class="cls-90" d="M275,229c-64.4,30.2-206.3-21.2-236.5-85.6" transform="translate(-10.98 -10.29)"/><path class="cls-91" d="M45.38,238.49c47.3-37.9,175.2-23.8,213.2,23.5" transform="translate(-10.98 -10.29)"/><path class="cls-92" d="M159.68,60.29c16.7,44.6,50,102.2,116.8,105.8" transform="translate(-10.98 -10.29)"/><path class="cls-93" d="M275,229c-44,47.8-181.8,53.5-229.6,9.5" transform="translate(-10.98 -10.29)"/><path class="cls-94" d="M146.18,308c13.6-22,66.9-34.6,88.9-21" transform="translate(-10.98 -10.29)"/><path class="cls-95" d="M38.58,143.29c7.6-40.8,80.3-90.6,121.1-83" transform="translate(-10.98 -10.29)"/><path class="cls-96" d="M275,229c-12.3-12.9-11.4-50.6,1.5-62.9" transform="translate(-10.98 -10.29)"/><path class="cls-97" d="M275,229c3.8,28.8.1,31.4-16.4,33" transform="translate(-10.98 -10.29)"/><path class="cls-98" d="M222.68,88.09c38.6,17.7,70,102.3,52.3,140.9" transform="translate(-10.98 -10.29)"/><path class="cls-99" d="M34.88,207.79c-4.6-54.4,70.3-142.9,124.8-147.5" transform="translate(-10.98 -10.29)"/><path class="cls-100" d="M159.68,60.29c56.8,10.7,126,111.8,115.4,168.6" transform="translate(-10.98 -10.29)"/><path class="cls-101" d="M276.48,166.09c2.3,54.4-75.8,139.6-130.3,142" transform="translate(-10.98 -10.29)"/><path class="cls-102" d="M222.68,88.09c28.7,59.3-17.2,191.3-76.5,220" transform="translate(-10.98 -10.29)"/><path class="cls-103" d="M45.38,238.49c-12.8-58.5,55.8-165.4,114.3-178.2" transform="translate(-10.98 -10.29)"/><path class="cls-104" d="M258.58,262c-60.1-20.5-119.5-141.6-98.9-201.7" transform="translate(-10.98 -10.29)"/><path class="cls-105" d="M275,229c-28.2,6.8-101.8,2.7-128.8,79" transform="translate(-10.98 -10.29)"/><path class="cls-106" d="M159.68,60.29c60.4,30.3,105.7,166.3,75.4,226.7" transform="translate(-10.98 -10.29)"/><path class="cls-107" d="M146.18,308c-46.8-52.2-38.8-200.8,13.5-247.7" transform="translate(-10.98 -10.29)"/><path class="cls-108" d="M222.68,88.09c-18.2,7.1-56-9.6-63.1-27.7" transform="translate(-10.98 -10.29)"/><path class="cls-109" d="M158.08,66c35.9-6,98.7,38.8,104.8,74.6" transform="translate(-10.98 -10.29)"/></g><g id="nodes"><circle class="cls-110" cx="211.7" cy="77.81" r="15"/><circle class="cls-111" cx="80.64" cy="284.07" r="10.3" transform="translate(-221.05 325.69) rotate(-84.28)"/><circle class="cls-110" cx="234.7" cy="101.81" r="11.2"/><circle class="cls-112" cx="263.98" cy="218.69" r="17.4"/><circle class="cls-113" cx="276.46" cy="166.07" r="15.7" transform="translate(-9.95 323.58) rotate(-62.34)"/><circle class="cls-114" cx="200.1" cy="295.11" r="11.6"/><circle class="cls-115" cx="135.2" cy="297.71" r="19.4"/><circle class="cls-114" cx="172.3" cy="301.4" r="11.8"/><circle class="cls-116" cx="20.5" cy="164.81" r="12.6"/><circle class="cls-116" cx="81.8" cy="70.7" r="10.8"/><circle class="cls-117" cx="264.36" cy="134.96" r="10.3" transform="translate(41.74 332.79) rotate(-71.56)"/><circle class="cls-115" cx="97.4" cy="290.71" r="13.4"/><circle class="cls-116" cx="23.9" cy="197.5" r="13"/><circle class="cls-116" cx="27.6" cy="133.01" r="12.6"/><circle class="cls-116" cx="34.4" cy="228.2" r="14.2"/><circle class="cls-116" cx="44" cy="104" r="11.8"/><circle class="cls-116" cx="60.4" cy="85" r="11.3"/><circle class="cls-118" cx="267.8" cy="188" r="10"/><circle class="cls-119" cx="258.57" cy="261.96" r="15.7" transform="translate(-82.71 414.13) rotate(-71.56)"/><circle class="cls-110" cx="148.7" cy="50" r="50"/><circle class="cls-115" cx="52.4" cy="251.71" r="10"/><circle class="cls-114" cx="224.1" cy="276.71" r="12.5"/></g><g id="node-labels"><text class="cls-120" transform="translate(195.18 81.42)">America</text><text class="cls-121" transform="translate(48.98 276.93)">Bernie Sanders</text><text class="cls-122" transform="translate(225.54 105.14)">China</text><text class="cls-123" transform="translate(242.61 223.04)">Congress</text><text class="cls-120" transform="translate(247.45 159.43)">Covid-19</text><text class="cls-122" transform="translate(184.89 294.17)">Democrat</text><text class="cls-124" transform="translate(105.52 313.24)">Donald</text><text class="cls-124" transform="translate(143.55 313.24)"> </text><text class="cls-125" transform="translate(146.66 313.24)">T</text><text class="cls-124" transform="translate(153.55 313.24)">rump</text><text class="cls-122" transform="translate(139.14 302.3)">Federal government</text><text class="cls-126" transform="translate(0 168.3)">Health care</text><text class="cls-121" transform="translate(59.25 73.77)">Health insurance</text><text class="cls-121" transform="translate(246.89 127.78)">India</text><text class="cls-126" transform="translate(80.05 294.17)">Joe Biden</text><text class="cls-126" transform="translate(7.84 200.98)">Medicaid</text><text class="cls-126" transform="translate(11.07 136.52)">Medicare</text><text class="cls-120" transform="translate(10.88 231.87)">Obamacare</text><text class="cls-122" transform="translate(27.24 107.34)">Prevention</text><text class="cls-122" transform="translate(34.32 88.28)">Planned parenthood</text><text class="cls-121" transform="translate(250.1 191.08)">Racial matter</text><text class="cls-120" transform="translate(225.06 255.79)">Republican</text><text class="cls-127" transform="translate(86.17 53.74)">United States</text><text class="cls-121" transform="translate(36.53 254.78)">the Clintons</text><text class="cls-122" transform="translate(204.62 279.98)">White house</text></g></svg>