<svg id="图层_1" data-name="图层 1" xmlns="http://www.w3.org/2000/svg" viewBox="0 0 640.96 491.06"><defs><style>.cls-1{opacity:0.8;}.cls-10,.cls-11,.cls-116,.cls-12,.cls-13,.cls-14,.cls-15,.cls-16,.cls-17,.cls-18,.cls-19,.cls-2,.cls-20,.cls-21,.cls-22,.cls-23,.cls-24,.cls-25,.cls-26,.cls-27,.cls-28,.cls-29,.cls-3,.cls-30,.cls-31,.cls-32,.cls-33,.cls-34,.cls-35,.cls-36,.cls-37,.cls-38,.cls-39,.cls-4,.cls-40,.cls-41,.cls-42,.cls-43,.cls-44,.cls-45,.cls-46,.cls-47,.cls-48,.cls-49,.cls-5,.cls-50,.cls-51,.cls-52,.cls-53,.cls-54,.cls-55,.cls-56,.cls-57,.cls-58,.cls-59,.cls-6,.cls-60,.cls-61,.cls-62,.cls-63,.cls-64,.cls-65,.cls-66,.cls-67,.cls-68,.cls-69,.cls-7,.cls-70,.cls-71,.cls-72,.cls-73,.cls-74,.cls-75,.cls-76,.cls-77,.cls-78,.cls-79,.cls-8,.cls-80,.cls-81,.cls-82,.cls-83,.cls-84,.cls-85,.cls-86,.cls-87,.cls-88,.cls-89,.cls-9,.cls-90,.cls-91,.cls-92{fill:none;}.cls-15,.cls-2{stroke:#561882;}.cls-10,.cls-11,.cls-12,.cls-13,.cls-14,.cls-15,.cls-16,.cls-17,.cls-18,.cls-19,.cls-2,.cls-20,.cls-21,.cls-22,.cls-23,.cls-24,.cls-25,.cls-26,.cls-27,.cls-28,.cls-29,.cls-3,.cls-30,.cls-31,.cls-32,.cls-33,.cls-34,.cls-35,.cls-36,.cls-37,.cls-38,.cls-39,.cls-4,.cls-40,.cls-41,.cls-42,.cls-43,.cls-44,.cls-45,.cls-46,.cls-47,.cls-48,.cls-49,.cls-5,.cls-50,.cls-51,.cls-52,.cls-53,.cls-54,.cls-55,.cls-56,.cls-57,.cls-58,.cls-59,.cls-6,.cls-60,.cls-61,.cls-62,.cls-63,.cls-64,.cls-65,.cls-66,.cls-67,.cls-68,.cls-69,.cls-7,.cls-70,.cls-71,.cls-72,.cls-73,.cls-74,.cls-75,.cls-76,.cls-77,.cls-78,.cls-79,.cls-8,.cls-80,.cls-81,.cls-82,.cls-83,.cls-84,.cls-85,.cls-86,.cls-87,.cls-88,.cls-89,.cls-9,.cls-90,.cls-91,.cls-92{stroke-opacity:0.5;}.cls-2,.cls-25,.cls-26{stroke-width:0.85px;}.cls-3{stroke:#213f97;}.cls-3,.cls-92{stroke-width:4px;}.cls-22,.cls-24,.cls-28,.cls-4,.cls-5,.cls-57,.cls-6,.cls-60,.cls-65,.cls-7,.cls-79{stroke:#210ded;}.cls-4,.cls-44{stroke-width:2.55px;}.cls-5{stroke-width:2.85px;}.cls-6,.cls-93,.cls-94,.cls-95,.cls-96,.cls-98{stroke-width:0.01px;}.cls-7,.cls-8{stroke-width:0.04px;}.cls-12,.cls-13,.cls-16,.cls-20,.cls-27,.cls-31,.cls-33,.cls-38,.cls-42,.cls-55,.cls-66,.cls-67,.cls-78,.cls-8,.cls-83,.cls-84,.cls-89{stroke:#557d9a;}.cls-40,.cls-44,.cls-48,.cls-52,.cls-58,.cls-62,.cls-63,.cls-70,.cls-71,.cls-76,.cls-86,.cls-9,.cls-90{stroke:#b8c835;}.cls-9{stroke-width:0.09px;}.cls-10,.cls-25,.cls-35,.cls-69,.cls-77{stroke:#c4ae46;}.cls-10{stroke-width:0.16px;}.cls-11,.cls-39,.cls-45,.cls-46,.cls-64{stroke:#903e99;}.cls-11,.cls-12{stroke-width:0.19px;}.cls-13,.cls-14{stroke-width:0.21px;}.cls-14{stroke:#ba631d;}.cls-15{stroke-width:3.16px;}.cls-16,.cls-17{stroke-width:0.39px;}.cls-17,.cls-21,.cls-32,.cls-34,.cls-68,.cls-87,.cls-91{stroke:#f38a33;}.cls-18,.cls-41,.cls-50{stroke:#89ed48;}.cls-18{stroke-width:0.47px;}.cls-19,.cls-30,.cls-36,.cls-47,.cls-53,.cls-59,.cls-74,.cls-75,.cls-80,.cls-81,.cls-82,.cls-85{stroke:#845887;}.cls-19,.cls-20{stroke-width:0.52px;}.cls-21{stroke-width:0.57px;}.cls-22{stroke-width:14.75px;}.cls-23{stroke:#8c2318;stroke-width:0.64px;}.cls-24{stroke-width:10.36px;}.cls-26{stroke:#8a8830;}.cls-27{stroke-width:5.92px;}.cls-28{stroke-width:0.97px;}.cls-29,.cls-43,.cls-51,.cls-56,.cls-61,.cls-88{stroke:#e8a422;}.cls-29{stroke-width:1.13px;}.cls-30{stroke-width:4.63px;}.cls-31{stroke-width:4.81px;}.cls-32{stroke-width:1.43px;}.cls-33{stroke-width:1.51px;}.cls-34{stroke-width:1.66px;}.cls-35,.cls-36{stroke-width:1.68px;}.cls-37,.cls-92{stroke:#ff7045;}.cls-37{stroke-width:3px;}.cls-38{stroke-width:1.89px;}.cls-39{stroke-width:5.69px;}.cls-40{stroke-width:1.94px;}.cls-41{stroke-width:2.09px;}.cls-42{stroke-width:2.14px;}.cls-43{stroke-width:2.32px;}.cls-45{stroke-width:2.6px;}.cls-46{stroke-width:2.67px;}.cls-47,.cls-48{stroke-width:2.7px;}.cls-49,.cls-54,.cls-72,.cls-73{stroke:#257f48;}.cls-49,.cls-56{stroke-width:5px;}.cls-50{stroke-width:2.8px;}.cls-51{stroke-width:2.88px;}.cls-52{stroke-width:2.98px;}.cls-53{stroke-width:15px;}.cls-54{stroke-width:7px;}.cls-55{stroke-width:3.69px;}.cls-57,.cls-58{stroke-width:3.94px;}.cls-59{stroke-width:4.22px;}.cls-60{stroke-width:4.27px;}.cls-61{stroke-width:4.3px;}.cls-62{stroke-width:4.45px;}.cls-63{stroke-width:4.53px;}.cls-64{stroke-width:4.96px;}.cls-65{stroke-width:5.21px;}.cls-66{stroke-width:5.34px;}.cls-67{stroke-width:5.9px;}.cls-68{stroke-width:6.28px;}.cls-69{stroke-width:6.35px;}.cls-70{stroke-width:7.16px;}.cls-71{stroke-width:7.19px;}.cls-72,.cls-91{stroke-width:9px;}.cls-73{stroke-width:10px;}.cls-74{stroke-width:8.08px;}.cls-75{stroke-width:8.61px;}.cls-76{stroke-width:8.64px;}.cls-77{stroke-width:8.89px;}.cls-78{stroke-width:10.29px;}.cls-79{stroke-width:10.56px;}.cls-80{stroke-width:11.93px;}.cls-81{stroke-width:12.04px;}.cls-82{stroke-width:13.18px;}.cls-83{stroke-width:13px;}.cls-84{stroke-width:15.23px;}.cls-85{stroke-width:16.43px;}.cls-86{stroke-width:16px;}.cls-87{stroke-width:20.33px;}.cls-88{stroke-width:23.86px;}.cls-89{stroke-width:19px;}.cls-90{stroke-width:20px;}.cls-93,.cls-97{fill:#bdce9c;}.cls-93,.cls-94,.cls-95,.cls-96,.cls-97,.cls-98{fill-opacity:0.8;stroke:#000;stroke-opacity:0.8;}.cls-94{fill:#98aac9;}.cls-95{fill:#fa903e;}.cls-96{fill:#ffc274;}.cls-97{stroke-width:0.01px;}.cls-98{fill:#b04237;}.cls-100,.cls-101,.cls-102,.cls-103,.cls-104,.cls-105,.cls-106,.cls-107,.cls-108,.cls-109,.cls-110,.cls-111,.cls-112,.cls-113,.cls-114,.cls-115,.cls-99{isolation:isolate;}.cls-99{font-size:7px;}.cls-100,.cls-101,.cls-102,.cls-103,.cls-105,.cls-106,.cls-107,.cls-108,.cls-109,.cls-110,.cls-111,.cls-112,.cls-113,.cls-114,.cls-115,.cls-99{font-family:ArialMT, Arial;}.cls-100,.cls-109{font-size:16px;}.cls-101{font-size:29px;}.cls-102{font-size:19px;}.cls-103{font-size:21px;}.cls-105,.cls-106,.cls-107{font-size:13px;}.cls-106{letter-spacing:-0.02em;}.cls-107{letter-spacing:-0.06em;}.cls-108{font-size:26px;}.cls-109{letter-spacing:-0.06em;}.cls-110{font-size:8px;}.cls-111{font-size:11px;}.cls-112{font-size:30px;}.cls-113{font-size:10px;}.cls-114{font-size:15px;}.cls-115{font-size:9px;}</style></defs><title>IN_final</title><g id="edges" class="cls-1"><path class="cls-2" d="M192.45,170.7c5-52.27,91-123.13,143.23-118.11" transform="translate(0 0)"/><path class="cls-3" d="M270,71.86c63.75,74.39,47.79,281.6-26.6,345.36" transform="translate(0 0)"/><path class="cls-4" d="M192.45,170.7c-5.28-13.74,7.4-42.26,21.13-47.54" transform="translate(0 0)"/><path class="cls-5" d="M243.38,417.22C356.05,294.83,286,170.61,237,98.37" transform="translate(0 0)"/><path class="cls-6" d="M183.7,281.44c-26.63-49.82,8.16-164.45,58-191.1" transform="translate(0 0)"/><path class="cls-7" d="M183.7,281.44C159,222.26,210.81,96.52,270,71.86" transform="translate(0 0)"/><path class="cls-8" d="M183.7,281.44C258.8,283.63,368.17,399.59,366,474.69" transform="translate(0 0)"/><path class="cls-9" d="M408.68,50c84.72,85.68,83.28,341.27-2.4,426" transform="translate(0 0)"/><path class="cls-10" d="M603,238.8c19.81,65.71-49.06,194-114.78,213.81" transform="translate(0 0)"/><path class="cls-11" d="M183.7,281.44c84-81.33,331.91-77.36,413.23,6.61" transform="translate(0 0)"/><path class="cls-12" d="M213.58,123.16c109.11,32,224.73,243.73,192.7,352.83" transform="translate(0 0)"/><path class="cls-13" d="M299,453.05c-18.29,4-51.67-17.54-55.63-35.83" transform="translate(0 0)"/><path class="cls-14" d="M566.85,155.92c-72.24,34-231.58-23.41-265.56-95.65" transform="translate(0 0)"/><path class="cls-15" d="M192.45,170.7c-.32-43.86,65-110.11,108.84-110.43" transform="translate(0 0)"/><path class="cls-16" d="M191.15,347c60.51-9.44,165.4,67.19,174.83,127.7" transform="translate(0 0)"/><path class="cls-17" d="M603,238.8c-36.09-11.69-72.69-83.34-61-119.43" transform="translate(0 0)"/><path class="cls-18" d="M299,453.05c38.51-70.56,202.12-118.64,272.69-80.13" transform="translate(0 0)"/><path class="cls-19" d="M492.39,77.42c-45.59,43.37-179,40-222.41-5.56" transform="translate(0 0)"/><path class="cls-20" d="M243.38,417.22c36-13,109.57,21.46,122.59,57.47" transform="translate(0 0)"/><path class="cls-21" d="M492.39,77.42C555.43,98.64,618.15,225,597,288.05" transform="translate(0 0)"/><path class="cls-22" d="M243.38,417.22c47.07-58,.29-147.45-59.68-135.78" transform="translate(0 0)"/><path class="cls-23" d="M335.68,52.59c-5.35,8.41-26,13-34.39,7.68" transform="translate(0 0)"/><path class="cls-24" d="M243.38,417.22c31.47-77.76,55.63-152.8-62.13-193.5" transform="translate(0 0)"/><path class="cls-25" d="M603,238.8C611,325.57,493.05,467.89,406.28,476" transform="translate(0 0)"/><path class="cls-26" d="M335.68,52.59c98.8,70.56,141.16,324.61,70.6,423.4" transform="translate(0 0)"/><path class="cls-27" d="M521,426.91c-57.45,53.57-224,47.76-277.57-9.69" transform="translate(0 0)"/><path class="cls-28" d="M181.25,223.72C166.66,185,202.92,104.93,241.68,90.34" transform="translate(0 0)"/><path class="cls-29" d="M492.39,77.42c41.82,3.51,99.28,71.5,95.77,113.32" transform="translate(0 0)"/><path class="cls-30" d="M192.45,170.7C211.56,103.31,341.3,30.9,408.68,50" transform="translate(0 0)"/><path class="cls-31" d="M192.45,170.7C296.28,189,424.58,372.18,406.28,476" transform="translate(0 0)"/><path class="cls-32" d="M408.68,50c89.45,16.3,199.21,174.89,182.93,264.34" transform="translate(0 0)"/><path class="cls-33" d="M191.15,347c51.85-4,135.56,67.9,139.52,119.75" transform="translate(0 0)"/><path class="cls-34" d="M566.85,155.92c23.79,9.36,45.44,59.09,36.08,82.88" transform="translate(0 0)"/><path class="cls-35" d="M571.7,372.92c-11.93-22,3.21-72.94,25.23-84.87" transform="translate(0 0)"/><path class="cls-36" d="M408.68,50C385.31,82.12,302.09,95.23,270,71.86" transform="translate(0 0)"/><path class="cls-37" d="M603,238.8c-71.71,7.35-52.88,91.69-11.32,75.53" transform="translate(0 0)"/><path class="cls-38" d="M191.15,347C273.09,297,471,345,521,426.91" transform="translate(0 0)"/><path class="cls-39" d="M603,238.8c-101,54.74-334.65-14.65-389.4-115.64" transform="translate(0 0)"/><path class="cls-40" d="M566.85,155.92c44.37,42.43,47.28,172.63,4.85,217" transform="translate(0 0)"/><path class="cls-41" d="M571.7,372.92c-29.45,67-174.07,123.25-241,93.8" transform="translate(0 0)"/><path class="cls-42" d="M191.15,347c80.52-38.27,258.73,25.11,297,105.64" transform="translate(0 0)"/><path class="cls-43" d="M566.85,155.92C514,166.38,419.13,102.82,408.68,50" transform="translate(0 0)"/><path class="cls-44" d="M492.39,77.42c69.24,88,41.14,323.79-46.84,393" transform="translate(0 0)"/><path class="cls-45" d="M603,238.8c-87.35,81.32-340.36,72.27-421.68-15.08" transform="translate(0 0)"/><path class="cls-46" d="M603,238.8C566.7,346.39,351,453.44,243.38,417.22" transform="translate(0 0)"/><path class="cls-47" d="M408.68,50c-25.33,41.46-125.53,65.66-167,40.33" transform="translate(0 0)"/><path class="cls-48" d="M408.68,50c76.4,93.5,50.77,348.31-42.7,424.7" transform="translate(0 0)"/><path class="cls-49" d="M571.7,372.92c-140.79-64.61-186.08,27-165.42,103.07" transform="translate(0 0)"/><path class="cls-50" d="M571.7,372.92C550.91,434.42,427.47,495.48,366,474.69" transform="translate(0 0)"/><path class="cls-51" d="M492.39,77.42c18.3-1.51,48,23.66,49.53,42" transform="translate(0 0)"/><path class="cls-52" d="M408.68,50c67.74,98.94,20.93,349-78,416.71" transform="translate(0 0)"/><path class="cls-53" d="M243.38,417.22C203,310.71,302.18,90.39,408.68,50" transform="translate(0 0)"/><path class="cls-54" d="M571.7,372.92C525,347.11,423.16,359.26,445.55,470.45" transform="translate(0 0)"/><path class="cls-55" d="M183.7,281.44c95.12-26.66,277.79,76,304.45,171.17" transform="translate(0 0)"/><path class="cls-56" d="M588.16,190.74c-64,7.75-171.73-76.69-179.48-140.75" transform="translate(0 0)"/><path class="cls-57" d="M191.15,347c18.67-32.77,30.2-91.59-9.9-123.25" transform="translate(0 0)"/><path class="cls-58" d="M571.7,372.92C515,328.16,497.17,176,541.92,119.37" transform="translate(0 0)"/><path class="cls-59" d="M243.38,417.22c44.23-96.75,192-226.48,298.54-297.85" transform="translate(0 0)"/><path class="cls-60" d="M183.7,281.44c83.67-37.13,45.09-73.61-2.45-57.72" transform="translate(0 0)"/><path class="cls-61" d="M408.68,50c40.52-12.78,120.46,28.84,133.24,69.36" transform="translate(0 0)"/><path class="cls-62" d="M492.39,77.42c74.19,75.89,71.64,301-4.24,375.19" transform="translate(0 0)"/><path class="cls-63" d="M492.39,77.42C568,141.61,585.13,351.3,521,426.91" transform="translate(0 0)"/><path class="cls-64" d="M603,238.8c-95.72,68.47-342,27.61-410.48-68.1" transform="translate(0 0)"/><path class="cls-65" d="M191.15,347c20.6-32.64,14.27-48.38-7.45-65.53" transform="translate(0 0)"/><path class="cls-66" d="M183.7,281.44C280.24,243.08,482.59,330.36,521,426.91" transform="translate(0 0)"/><path class="cls-67" d="M571.7,372.92C455.4,408.32,227.86,287,192.45,170.7" transform="translate(0 0)"/><path class="cls-68" d="M603,238.8c-54.38-10.17-120.7-107-110.54-161.38" transform="translate(0 0)"/><path class="cls-69" d="M603,238.8c14.86,77.8-79.57,216.79-157.38,231.65" transform="translate(0 0)"/><path class="cls-70" d="M408.68,50C506.51,102.93,573.87,329.07,521,426.91" transform="translate(0 0)"/><path class="cls-71" d="M408.68,50c96.41,64.62,144.09,306.18,79.47,402.6" transform="translate(0 0)"/><path class="cls-72" d="M571.7,372.92c.65,20.94-29.8,53.34-50.75,54" transform="translate(0 0)"/><path class="cls-73" d="M571.7,372.92c-31.74-2.22-87.25,27-83.55,79.69" transform="translate(0 0)"/><path class="cls-74" d="M492.39,77.42c-33,91.49-219.65,179.27-311.14,146.3" transform="translate(0 0)"/><path class="cls-75" d="M492.39,77.42c-20.93,102.55-206.15,225-308.69,204" transform="translate(0 0)"/><path class="cls-76" d="M445.55,470.45C354.09,393.73,332,141.47,408.68,50" transform="translate(0 0)"/><path class="cls-77" d="M571.7,372.92c-20.58-33.07-1.84-113.55,31.23-134.12" transform="translate(0 0)"/><path class="cls-78" d="M571.7,372.92c-107.93,48.25-342.2-41.27-390.45-149.2" transform="translate(0 0)"/><path class="cls-79" d="M191.15,347c24.49,3.6,55.83,45.75,52.23,70.25" transform="translate(0 0)"/><path class="cls-80" d="M408.68,50C398,130.24,261.48,234.47,181.25,223.72" transform="translate(0 0)"/><path class="cls-81" d="M183.7,281.44C182.41,190.15,317.4,51.3,408.68,50" transform="translate(0 0)"/><path class="cls-82" d="M191.15,347C175.26,244.07,305.78,65.89,408.68,50" transform="translate(0 0)"/><path class="cls-83" d="M191.15,347c81.3-70.92,309.63-55.35,380.55,25.95" transform="translate(0 0)"/><path class="cls-84" d="M571.7,372.92c-95.9,59.3-328.7,4.41-388-91.48" transform="translate(0 0)"/><path class="cls-85" d="M492.39,77.42c18.16,117.76-131.25,321.64-249,339.8" transform="translate(0 0)"/><path class="cls-86" d="M571.7,372.92c-75-43.24-122.54-220.54-79.31-295.5" transform="translate(0 0)"/><path class="cls-87" d="M603,238.8C526.32,239.89,409.77,126.61,408.68,50" transform="translate(0 0)"/><path class="cls-88" d="M492.39,77.42C470.17,88.68,420,72.23,408.68,50" transform="translate(0 0)"/><path class="cls-89" d="M571.7,372.92c-96.4,37.52-241,48.38-328.32,44.3" transform="translate(0 0)"/><path class="cls-90" d="M571.7,372.92c-97.19-32-195-225.73-163-322.91" transform="translate(0 0)"/><path class="cls-91" d="M586.26,287.51c-76.6,1.09-176.29-156.44-177.39-233" transform="translate(0 0)"/><path class="cls-92" d="M584.37,251.31c-17.52,7.06-16.86,29.09,1.89,36.2" transform="translate(0 0)"/></g><g id="nodes"><circle class="cls-93" cx="299.01" cy="453.05" r="12.35"/><circle class="cls-94" cx="191.15" cy="346.98" r="26.02"/><circle class="cls-93" cx="571.7" cy="372.92" r="47.64"/><circle class="cls-95" cx="602.93" cy="238.79" r="27.5"/><circle class="cls-96" cx="492.4" cy="77.42" r="34.61"/><circle class="cls-94" cx="192.45" cy="170.7" r="21.78"/><circle class="cls-94" cx="243.39" cy="417.21" r="42.64"/><circle class="cls-94" cx="183.7" cy="281.43" r="26.12"/><circle class="cls-94" cx="269.98" cy="71.85" r="13.16"/><circle class="cls-96" cx="566.86" cy="155.92" r="14.68"/><circle class="cls-96" cx="588.17" cy="190.75" r="14.48"/><circle class="cls-96" cx="408.68" cy="50" r="50"/><circle class="cls-93" cx="488.15" cy="452.61" r="16.02"/><circle class="cls-97" cx="445.58" cy="470.48" r="17.57"/><circle class="cls-95" cx="598.93" cy="285.05" r="18"/><circle class="cls-94" cx="181.26" cy="223.73" r="24.17"/><circle class="cls-98" cx="301.29" cy="60.27" r="13.68"/><circle class="cls-94" cx="213.59" cy="123.17" r="15.21"/><circle class="cls-98" cx="335.68" cy="52.59" r="12.54"/><circle class="cls-94" cx="241.68" cy="90.34" r="14.3"/><circle class="cls-95" cx="591.61" cy="315.33" r="12.45"/><circle class="cls-93" cx="520.95" cy="426.9" r="19.01"/><circle class="cls-93" cx="406.29" cy="476" r="15.05"/><circle class="cls-93" cx="330.67" cy="466.73" r="14.19"/><circle class="cls-93" cx="365.97" cy="474.7" r="15.17"/><circle class="cls-96" cx="541.92" cy="119.38" r="16.59"/></g><g id="node-labels"><text class="cls-99" transform="translate(290.46 453.33)">Aiims</text><text class="cls-100" transform="translate(142.25 351.93)">Chief minister</text><text class="cls-101" transform="translate(509.65 381.73)">Congress</text><text class="cls-102" transform="translate(564.92 244.31)">Covid-19</text><text class="cls-103" transform="translate(468.47 83.24)">Delhi</text><g class="cls-104"><text class="cls-105" transform="translate(153.44 175.67)">Donald</text><text class="cls-106" transform="translate(194.64 175.67)"> </text><text class="cls-107" transform="translate(198.01 175.67)">T</text><text class="cls-105" transform="translate(205.47 175.67)">rump</text></g><text class="cls-108" transform="translate(163.91 425.33)">Gandhi family</text><g class="cls-104"><text class="cls-100" transform="translate(118.77 286.4)">Ghulam Nabi</text><text class="cls-109" transform="translate(212.15 286.4)"> </text><text class="cls-100" transform="translate(215.71 286.4)">Azad</text></g><text class="cls-110" transform="translate(238.63 75.73)">Manmohan Singh</text><text class="cls-111" transform="translate(546.35 159.56)">America</text><text class="cls-111" transform="translate(573.41 194.39)">Hindu</text><text class="cls-112" transform="translate(376.16 57.47)">India</text><text class="cls-113" transform="translate(466.75 456.43)">Lok Sabha</text><text class="cls-111" transform="translate(408.88 473.46)">Health minister</text><text class="cls-105" transform="translate(580.27 287.52)">Muslim</text><text class="cls-114" transform="translate(131.65 228.46)">Narendra Modi</text><text class="cls-115" transform="translate(280.39 63.75)">Obamacare</text><text class="cls-115" transform="translate(194.07 126.79)">Joe Biden</text><text class="cls-110" transform="translate(319.67 56.04)">Medicaid</text><text class="cls-115" transform="translate(212.93 93.97)">Prime minister</text><text class="cls-99" transform="translate(571.57 317.61)">Public health</text><text class="cls-111" transform="translate(490.38 431.46)">Rajya Sabha</text><text class="cls-115" transform="translate(383.77 487.06)">Republican</text><text class="cls-115" transform="translate(296.4 466.84)">Sate government</text><text class="cls-115" transform="translate(336.46 476.78)">Supreme court</text><text class="cls-105" transform="translate(504.17 123.17)">Uttar Pradesh</text></g><line class="cls-116" x1="2.34" y1="372.92" y2="370.08"/></svg>