<svg id="图层_1" data-name="图层 1" xmlns="http://www.w3.org/2000/svg" viewBox="0 0 640.95 491.06"><defs><style>.cls-1{opacity:0.8;}.cls-10,.cls-11,.cls-111,.cls-12,.cls-13,.cls-14,.cls-15,.cls-16,.cls-17,.cls-18,.cls-19,.cls-2,.cls-20,.cls-21,.cls-22,.cls-23,.cls-24,.cls-25,.cls-26,.cls-27,.cls-28,.cls-29,.cls-3,.cls-30,.cls-31,.cls-32,.cls-33,.cls-34,.cls-35,.cls-36,.cls-37,.cls-38,.cls-39,.cls-4,.cls-40,.cls-41,.cls-42,.cls-43,.cls-44,.cls-45,.cls-46,.cls-47,.cls-48,.cls-49,.cls-5,.cls-50,.cls-51,.cls-52,.cls-53,.cls-54,.cls-55,.cls-56,.cls-57,.cls-58,.cls-59,.cls-6,.cls-60,.cls-61,.cls-62,.cls-63,.cls-64,.cls-65,.cls-66,.cls-67,.cls-68,.cls-69,.cls-7,.cls-70,.cls-71,.cls-72,.cls-73,.cls-74,.cls-75,.cls-76,.cls-77,.cls-78,.cls-79,.cls-8,.cls-80,.cls-81,.cls-82,.cls-83,.cls-84,.cls-85,.cls-86,.cls-87,.cls-88,.cls-89,.cls-9,.cls-90,.cls-91,.cls-92{fill:none;}.cls-15,.cls-2{stroke:#561882;}.cls-10,.cls-11,.cls-12,.cls-13,.cls-14,.cls-15,.cls-16,.cls-17,.cls-18,.cls-19,.cls-2,.cls-20,.cls-21,.cls-22,.cls-23,.cls-24,.cls-25,.cls-26,.cls-27,.cls-28,.cls-29,.cls-3,.cls-30,.cls-31,.cls-32,.cls-33,.cls-34,.cls-35,.cls-36,.cls-37,.cls-38,.cls-39,.cls-4,.cls-40,.cls-41,.cls-42,.cls-43,.cls-44,.cls-45,.cls-46,.cls-47,.cls-48,.cls-49,.cls-5,.cls-50,.cls-51,.cls-52,.cls-53,.cls-54,.cls-55,.cls-56,.cls-57,.cls-58,.cls-59,.cls-6,.cls-60,.cls-61,.cls-62,.cls-63,.cls-64,.cls-65,.cls-66,.cls-67,.cls-68,.cls-69,.cls-7,.cls-70,.cls-71,.cls-72,.cls-73,.cls-74,.cls-75,.cls-76,.cls-77,.cls-78,.cls-79,.cls-8,.cls-80,.cls-81,.cls-82,.cls-83,.cls-84,.cls-85,.cls-86,.cls-87,.cls-88,.cls-89,.cls-9,.cls-90,.cls-91,.cls-92{stroke-opacity:0.5;}.cls-2,.cls-25,.cls-26{stroke-width:0.85px;}.cls-3{stroke:#213f97;}.cls-3,.cls-92{stroke-width:4px;}.cls-22,.cls-24,.cls-28,.cls-4,.cls-5,.cls-57,.cls-6,.cls-60,.cls-65,.cls-7,.cls-79{stroke:#210ded;}.cls-4,.cls-44{stroke-width:2.55px;}.cls-5{stroke-width:2.85px;}.cls-6,.cls-93,.cls-94,.cls-95,.cls-96,.cls-97{stroke-width:0.01px;}.cls-7,.cls-8{stroke-width:0.04px;}.cls-12,.cls-13,.cls-16,.cls-20,.cls-27,.cls-31,.cls-33,.cls-38,.cls-42,.cls-55,.cls-66,.cls-67,.cls-78,.cls-8,.cls-83,.cls-84,.cls-89{stroke:#557d9a;}.cls-40,.cls-44,.cls-48,.cls-52,.cls-58,.cls-62,.cls-63,.cls-70,.cls-71,.cls-76,.cls-86,.cls-9,.cls-90{stroke:#b8c835;}.cls-9{stroke-width:0.09px;}.cls-10,.cls-25,.cls-35,.cls-69,.cls-77{stroke:#c4ae46;}.cls-10{stroke-width:0.16px;}.cls-11,.cls-39,.cls-45,.cls-46,.cls-64{stroke:#903e99;}.cls-11,.cls-12{stroke-width:0.19px;}.cls-13,.cls-14{stroke-width:0.21px;}.cls-14{stroke:#ba631d;}.cls-15{stroke-width:3.16px;}.cls-16,.cls-17{stroke-width:0.39px;}.cls-17,.cls-21,.cls-32,.cls-34,.cls-68,.cls-87,.cls-91{stroke:#f38a33;}.cls-18,.cls-41,.cls-50{stroke:#89ed48;}.cls-18{stroke-width:0.47px;}.cls-19,.cls-30,.cls-36,.cls-47,.cls-53,.cls-59,.cls-74,.cls-75,.cls-80,.cls-81,.cls-82,.cls-85{stroke:#845887;}.cls-19,.cls-20{stroke-width:0.52px;}.cls-21{stroke-width:0.57px;}.cls-22{stroke-width:14.75px;}.cls-23{stroke:#8c2318;stroke-width:0.64px;}.cls-24{stroke-width:10.36px;}.cls-26{stroke:#8a8830;}.cls-27{stroke-width:5.92px;}.cls-28{stroke-width:0.97px;}.cls-29,.cls-43,.cls-51,.cls-56,.cls-61,.cls-88{stroke:#e8a422;}.cls-29{stroke-width:1.13px;}.cls-30{stroke-width:4.63px;}.cls-31{stroke-width:4.81px;}.cls-32{stroke-width:1.43px;}.cls-33{stroke-width:1.51px;}.cls-34{stroke-width:1.66px;}.cls-35,.cls-36{stroke-width:1.68px;}.cls-37,.cls-92{stroke:#ff7045;}.cls-37{stroke-width:3px;}.cls-38{stroke-width:1.89px;}.cls-39{stroke-width:5.69px;}.cls-40{stroke-width:1.94px;}.cls-41{stroke-width:2.09px;}.cls-42{stroke-width:2.14px;}.cls-43{stroke-width:2.32px;}.cls-45{stroke-width:2.6px;}.cls-46{stroke-width:2.67px;}.cls-47,.cls-48{stroke-width:2.7px;}.cls-49,.cls-54,.cls-72,.cls-73{stroke:#257f48;}.cls-49,.cls-56{stroke-width:5px;}.cls-50{stroke-width:2.8px;}.cls-51{stroke-width:2.88px;}.cls-52{stroke-width:2.98px;}.cls-53{stroke-width:15px;}.cls-54{stroke-width:7px;}.cls-55{stroke-width:3.69px;}.cls-57,.cls-58{stroke-width:3.94px;}.cls-59{stroke-width:4.22px;}.cls-60{stroke-width:4.27px;}.cls-61{stroke-width:4.3px;}.cls-62{stroke-width:4.45px;}.cls-63{stroke-width:4.53px;}.cls-64{stroke-width:4.96px;}.cls-65{stroke-width:5.21px;}.cls-66{stroke-width:5.34px;}.cls-67{stroke-width:5.9px;}.cls-68{stroke-width:6.28px;}.cls-69{stroke-width:6.35px;}.cls-70{stroke-width:7.16px;}.cls-71{stroke-width:7.19px;}.cls-72,.cls-91{stroke-width:9px;}.cls-73{stroke-width:10px;}.cls-74{stroke-width:8.08px;}.cls-75{stroke-width:8.61px;}.cls-76{stroke-width:8.64px;}.cls-77{stroke-width:8.89px;}.cls-78{stroke-width:10.29px;}.cls-79{stroke-width:10.56px;}.cls-80{stroke-width:11.93px;}.cls-81{stroke-width:12.04px;}.cls-82{stroke-width:13.18px;}.cls-83{stroke-width:13px;}.cls-84{stroke-width:15.23px;}.cls-85{stroke-width:16.43px;}.cls-86{stroke-width:16px;}.cls-87{stroke-width:20.33px;}.cls-88{stroke-width:23.86px;}.cls-89{stroke-width:19px;}.cls-90{stroke-width:20px;}.cls-93{fill:#bdce9c;}.cls-93,.cls-94,.cls-95,.cls-96,.cls-97{fill-opacity:0.8;stroke:#000;stroke-opacity:0.8;}.cls-94{fill:#98aac9;}.cls-95{fill:#fa903e;}.cls-96{fill:#ffc274;}.cls-97{fill:#b04237;}.cls-100,.cls-101,.cls-102,.cls-103,.cls-104,.cls-105,.cls-106,.cls-107,.cls-108,.cls-109,.cls-110,.cls-98,.cls-99{isolation:isolate;font-family:ArialMT, Arial;}.cls-98{font-size:7px;}.cls-99{font-size:16px;}.cls-100{font-size:29px;}.cls-101{font-size:19px;}.cls-102{font-size:21px;}.cls-103{font-size:13px;}.cls-104{font-size:26px;}.cls-105{font-size:8px;}.cls-106{font-size:9px;}.cls-107{font-size:30px;}.cls-108{font-size:10px;}.cls-109{font-size:11px;}.cls-110{font-size:15px;}</style></defs><title>IN_gephi</title><g id="edges" class="cls-1"><path class="cls-2" d="M37.47,170.71c5-52.27,91-123.13,143.23-118.11" transform="translate(154.98 -0.01)"/><path class="cls-3" d="M115,71.87c63.75,74.39,47.79,281.6-26.6,345.36" transform="translate(154.98 -0.01)"/><path class="cls-4" d="M37.47,170.71c-5.28-13.74,7.4-42.26,21.13-47.54" transform="translate(154.98 -0.01)"/><path class="cls-5" d="M88.4,417.23C201.07,294.84,131.05,170.62,82,98.38" transform="translate(154.98 -0.01)"/><path class="cls-6" d="M28.72,281.45C2.09,231.63,36.88,117,86.7,90.35" transform="translate(154.98 -0.01)"/><path class="cls-7" d="M28.72,281.45C4.06,222.27,55.83,96.53,115,71.87" transform="translate(154.98 -0.01)"/><path class="cls-8" d="M28.72,281.45C103.82,283.64,213.19,399.6,211,474.7" transform="translate(154.98 -0.01)"/><path class="cls-9" d="M253.7,50c84.72,85.68,83.28,341.27-2.4,426" transform="translate(154.98 -0.01)"/><path class="cls-10" d="M448,238.81c19.81,65.71-49.06,194-114.78,213.81" transform="translate(154.98 -0.01)"/><path class="cls-11" d="M28.72,281.45c84-81.33,331.91-77.36,413.23,6.61" transform="translate(154.98 -0.01)"/><path class="cls-12" d="M58.6,123.17C167.71,155.2,283.33,366.9,251.3,476" transform="translate(154.98 -0.01)"/><path class="cls-13" d="M144,453.06c-18.29,4-51.67-17.54-55.63-35.83" transform="translate(154.98 -0.01)"/><path class="cls-14" d="M411.87,155.93c-72.24,34-231.58-23.41-265.56-95.65" transform="translate(154.98 -0.01)"/><path class="cls-15" d="M37.47,170.71c-.32-43.86,65-110.11,108.84-110.43" transform="translate(154.98 -0.01)"/><path class="cls-16" d="M36.17,347C96.68,337.56,201.57,414.19,211,474.7" transform="translate(154.98 -0.01)"/><path class="cls-17" d="M448,238.81c-36.09-11.69-72.69-83.34-61-119.43" transform="translate(154.98 -0.01)"/><path class="cls-18" d="M144,453.06c38.51-70.56,202.12-118.64,272.69-80.13" transform="translate(154.98 -0.01)"/><path class="cls-19" d="M337.41,77.43c-45.59,43.37-179,40-222.41-5.56" transform="translate(154.98 -0.01)"/><path class="cls-20" d="M88.4,417.23c36-13,109.57,21.46,122.59,57.47" transform="translate(154.98 -0.01)"/><path class="cls-21" d="M337.41,77.43C400.45,98.65,463.17,225,442,288.06" transform="translate(154.98 -0.01)"/><path class="cls-22" d="M88.4,417.23c47.07-58,.29-147.45-59.68-135.78" transform="translate(154.98 -0.01)"/><path class="cls-23" d="M180.7,52.6c-5.35,8.41-26,13-34.39,7.68" transform="translate(154.98 -0.01)"/><path class="cls-24" d="M88.4,417.23c31.47-77.76,55.63-152.8-62.13-193.5" transform="translate(154.98 -0.01)"/><path class="cls-25" d="M448,238.81C456.06,325.58,338.07,467.9,251.3,476" transform="translate(154.98 -0.01)"/><path class="cls-26" d="M180.7,52.6C279.5,123.16,321.86,377.21,251.3,476" transform="translate(154.98 -0.01)"/><path class="cls-27" d="M366,426.92c-57.45,53.57-224,47.76-277.57-9.69" transform="translate(154.98 -0.01)"/><path class="cls-28" d="M26.27,223.73C11.68,185,47.94,104.94,86.7,90.35" transform="translate(154.98 -0.01)"/><path class="cls-29" d="M337.41,77.43c41.82,3.51,99.28,71.5,95.77,113.32" transform="translate(154.98 -0.01)"/><path class="cls-30" d="M37.47,170.71C56.58,103.32,186.32,30.91,253.7,50" transform="translate(154.98 -0.01)"/><path class="cls-31" d="M37.47,170.71C141.3,189,269.6,372.19,251.3,476" transform="translate(154.98 -0.01)"/><path class="cls-32" d="M253.7,50C343.15,66.3,452.91,224.89,436.63,314.34" transform="translate(154.98 -0.01)"/><path class="cls-33" d="M36.17,347c51.85-4,135.56,67.9,139.52,119.75" transform="translate(154.98 -0.01)"/><path class="cls-34" d="M411.87,155.93c23.79,9.36,45.44,59.09,36.08,82.88" transform="translate(154.98 -0.01)"/><path class="cls-35" d="M416.72,372.93c-11.93-22,3.21-72.94,25.23-84.87" transform="translate(154.98 -0.01)"/><path class="cls-36" d="M253.7,50C230.33,82.13,147.11,95.24,115,71.87" transform="translate(154.98 -0.01)"/><path class="cls-37" d="M448,238.81c-71.71,7.35-52.88,91.69-11.32,75.53" transform="translate(154.98 -0.01)"/><path class="cls-38" d="M36.17,347C118.11,297,316,345,366,426.92" transform="translate(154.98 -0.01)"/><path class="cls-39" d="M448,238.81C347,293.55,113.35,224.16,58.6,123.17" transform="translate(154.98 -0.01)"/><path class="cls-40" d="M411.87,155.93c44.37,42.43,47.28,172.63,4.85,217" transform="translate(154.98 -0.01)"/><path class="cls-41" d="M416.72,372.93c-29.45,67-174.07,123.25-241,93.8" transform="translate(154.98 -0.01)"/><path class="cls-42" d="M36.17,347c80.52-38.27,258.73,25.11,297,105.64" transform="translate(154.98 -0.01)"/><path class="cls-43" d="M411.87,155.93C359.05,166.39,264.15,102.83,253.7,50" transform="translate(154.98 -0.01)"/><path class="cls-44" d="M337.41,77.43c69.24,88,41.14,323.79-46.84,393" transform="translate(154.98 -0.01)"/><path class="cls-45" d="M448,238.81c-87.35,81.32-340.36,72.27-421.68-15.08" transform="translate(154.98 -0.01)"/><path class="cls-46" d="M448,238.81C411.72,346.4,196,453.45,88.4,417.23" transform="translate(154.98 -0.01)"/><path class="cls-47" d="M253.7,50c-25.33,41.46-125.53,65.66-167,40.33" transform="translate(154.98 -0.01)"/><path class="cls-48" d="M253.7,50C330.1,143.5,304.47,398.31,211,474.7" transform="translate(154.98 -0.01)"/><path class="cls-49" d="M416.72,372.93C275.93,308.32,230.64,399.92,251.3,476" transform="translate(154.98 -0.01)"/><path class="cls-50" d="M416.72,372.93C395.93,434.43,272.49,495.49,211,474.7" transform="translate(154.98 -0.01)"/><path class="cls-51" d="M337.41,77.43c18.3-1.51,48,23.66,49.53,41.95" transform="translate(154.98 -0.01)"/><path class="cls-52" d="M253.7,50c67.74,98.94,20.93,349-78,416.71" transform="translate(154.98 -0.01)"/><path class="cls-53" d="M88.4,417.23C48,310.72,147.2,90.4,253.7,50" transform="translate(154.98 -0.01)"/><path class="cls-54" d="M416.72,372.93C370,347.12,268.18,359.27,290.57,470.46" transform="translate(154.98 -0.01)"/><path class="cls-55" d="M28.72,281.45c95.12-26.66,277.79,76,304.45,171.17" transform="translate(154.98 -0.01)"/><path class="cls-56" d="M433.18,190.75C369.14,198.5,261.45,114.06,253.7,50" transform="translate(154.98 -0.01)"/><path class="cls-57" d="M36.17,347c18.67-32.77,30.2-91.59-9.9-123.25" transform="translate(154.98 -0.01)"/><path class="cls-58" d="M416.72,372.93c-56.67-44.76-74.53-196.88-29.78-253.55" transform="translate(154.98 -0.01)"/><path class="cls-59" d="M88.4,417.23c44.23-96.75,192-226.48,298.54-297.85" transform="translate(154.98 -0.01)"/><path class="cls-60" d="M28.72,281.45c83.67-37.13,45.09-73.61-2.45-57.72" transform="translate(154.98 -0.01)"/><path class="cls-61" d="M253.7,50c40.52-12.78,120.46,28.84,133.24,69.36" transform="translate(154.98 -0.01)"/><path class="cls-62" d="M337.41,77.43c74.19,75.89,71.64,301-4.24,375.19" transform="translate(154.98 -0.01)"/><path class="cls-63" d="M337.41,77.43C413,141.62,430.15,351.31,366,426.92" transform="translate(154.98 -0.01)"/><path class="cls-64" d="M448,238.81c-95.72,68.47-342,27.61-410.48-68.1" transform="translate(154.98 -0.01)"/><path class="cls-65" d="M36.17,347c20.6-32.64,14.27-48.38-7.45-65.53" transform="translate(154.98 -0.01)"/><path class="cls-66" d="M28.72,281.45C125.26,243.09,327.61,330.37,366,426.92" transform="translate(154.98 -0.01)"/><path class="cls-67" d="M416.72,372.93C300.42,408.33,72.88,287,37.47,170.71" transform="translate(154.98 -0.01)"/><path class="cls-68" d="M448,238.81c-54.38-10.17-120.7-107-110.54-161.38" transform="translate(154.98 -0.01)"/><path class="cls-69" d="M448,238.81c14.86,77.8-79.57,216.79-157.38,231.65" transform="translate(154.98 -0.01)"/><path class="cls-70" d="M253.7,50C351.53,102.94,418.89,329.08,366,426.92" transform="translate(154.98 -0.01)"/><path class="cls-71" d="M253.7,50c96.41,64.62,144.09,306.18,79.47,402.6" transform="translate(154.98 -0.01)"/><path class="cls-72" d="M416.72,372.93c.65,20.94-29.8,53.34-50.75,54" transform="translate(154.98 -0.01)"/><path class="cls-73" d="M416.72,372.93c-31.74-2.22-87.25,27-83.55,79.69" transform="translate(154.98 -0.01)"/><path class="cls-74" d="M337.41,77.43c-33,91.49-219.65,179.27-311.14,146.3" transform="translate(154.98 -0.01)"/><path class="cls-75" d="M337.41,77.43c-20.93,102.55-206.15,225-308.69,204" transform="translate(154.98 -0.01)"/><path class="cls-76" d="M290.57,470.46C199.11,393.74,177,141.48,253.7,50" transform="translate(154.98 -0.01)"/><path class="cls-77" d="M416.72,372.93c-20.58-33.07-1.84-113.55,31.23-134.12" transform="translate(154.98 -0.01)"/><path class="cls-78" d="M416.72,372.93c-107.93,48.25-342.2-41.27-390.45-149.2" transform="translate(154.98 -0.01)"/><path class="cls-79" d="M36.17,347c24.49,3.6,55.83,45.75,52.23,70.25" transform="translate(154.98 -0.01)"/><path class="cls-80" d="M253.7,50C243,130.25,106.5,234.48,26.27,223.73" transform="translate(154.98 -0.01)"/><path class="cls-81" d="M28.72,281.45C27.43,190.16,162.42,51.31,253.7,50" transform="translate(154.98 -0.01)"/><path class="cls-82" d="M36.17,347C20.28,244.08,150.8,65.9,253.7,50" transform="translate(154.98 -0.01)"/><path class="cls-83" d="M36.17,347c81.3-70.92,309.63-55.35,380.55,25.95" transform="translate(154.98 -0.01)"/><path class="cls-84" d="M416.72,372.93c-95.9,59.3-328.7,4.41-388-91.48" transform="translate(154.98 -0.01)"/><path class="cls-85" d="M337.41,77.43c18.16,117.76-131.25,321.64-249,339.8" transform="translate(154.98 -0.01)"/><path class="cls-86" d="M416.72,372.93c-75-43.24-122.54-220.54-79.31-295.5" transform="translate(154.98 -0.01)"/><path class="cls-87" d="M448,238.81C371.34,239.9,254.79,126.62,253.7,50" transform="translate(154.98 -0.01)"/><path class="cls-88" d="M337.41,77.43C315.19,88.69,265,72.24,253.7,50" transform="translate(154.98 -0.01)"/><path class="cls-89" d="M416.72,372.93c-96.4,37.52-241,48.38-328.32,44.3" transform="translate(154.98 -0.01)"/><path class="cls-90" d="M416.72,372.93c-97.19-32-195-225.73-163-322.91" transform="translate(154.98 -0.01)"/><path class="cls-91" d="M431.28,287.52c-76.6,1.09-176.29-156.44-177.39-233" transform="translate(154.98 -0.01)"/><path class="cls-92" d="M429.39,251.32c-17.52,7.06-16.86,29.09,1.89,36.2" transform="translate(154.98 -0.01)"/></g><g id="nodes"><circle class="cls-93" cx="299.01" cy="453.05" r="12.35"/><circle class="cls-94" cx="191.15" cy="346.97" r="26.02"/><circle class="cls-93" cx="571.7" cy="372.91" r="47.64"/><circle class="cls-95" cx="602.93" cy="238.79" r="30.97"/><circle class="cls-96" cx="492.4" cy="77.42" r="34.61"/><circle class="cls-94" cx="192.45" cy="170.7" r="21.78"/><circle class="cls-94" cx="243.39" cy="417.21" r="42.64"/><circle class="cls-94" cx="183.7" cy="281.43" r="26.12"/><circle class="cls-94" cx="269.98" cy="71.85" r="13.16"/><circle class="cls-96" cx="566.86" cy="155.92" r="14.68"/><circle class="cls-96" cx="588.17" cy="190.74" r="14.48"/><circle class="cls-96" cx="408.68" cy="50" r="50"/><circle class="cls-93" cx="488.15" cy="452.6" r="16.02"/><circle class="cls-93" cx="290.57" cy="470.46" r="17.57" transform="translate(-37.58 739.4) rotate(-87.4)"/><circle class="cls-95" cx="598.93" cy="285.05" r="15"/><circle class="cls-94" cx="181.26" cy="223.72" r="24.17"/><circle class="cls-97" cx="301.29" cy="60.27" r="13.68"/><circle class="cls-94" cx="213.59" cy="123.16" r="15.21"/><circle class="cls-97" cx="335.68" cy="52.59" r="12.54"/><circle class="cls-94" cx="241.68" cy="90.34" r="14.3"/><circle class="cls-95" cx="591.61" cy="314.33" r="12.45"/><circle class="cls-93" cx="520.95" cy="426.9" r="19.01"/><circle class="cls-93" cx="406.29" cy="476" r="15.05"/><circle class="cls-93" cx="330.67" cy="466.72" r="14.19"/><circle class="cls-93" cx="365.97" cy="474.69" r="15.17"/><circle class="cls-96" cx="541.92" cy="119.37" r="16.59"/></g><g id="node-labels"><text class="cls-98" transform="translate(290.46 453.32)">Aiims</text><text class="cls-99" transform="translate(142.25 351.93)">Chief minister</text><text class="cls-100" transform="translate(509.65 381.72)">Congress</text><text class="cls-101" transform="translate(564.92 244.31)">Covid-19</text><text class="cls-102" transform="translate(468.47 83.24)">Delhi</text><text class="cls-103" transform="translate(153.44 175.67)">Donald trump</text><text class="cls-104" transform="translate(163.91 425.32)">Gandhi family</text><text class="cls-99" transform="translate(118.77 286.4)">Ghulam nabi azad</text><text class="cls-105" transform="translate(238.63 75.73)">Manmohan Singh</text><text class="cls-106" transform="translate(550.35 159.56)">America</text><text class="cls-106" transform="translate(576.41 194.38)">Hindu</text><text class="cls-107" transform="translate(376.16 57.46)">India</text><text class="cls-108" transform="translate(466.75 456.42)">lok sabha</text><text class="cls-109" transform="translate(408.88 473.45)">Health minister</text><text class="cls-105" transform="translate(586.27 287.51)">Muslim</text><text class="cls-110" transform="translate(131.65 228.45)">Narendra modi</text><text class="cls-105" transform="translate(280.39 63.75)">Obamacare</text><text class="cls-106" transform="translate(194.07 126.79)">Joe biden</text><text class="cls-105" transform="translate(319.67 56.04)">Medicaid</text><text class="cls-106" transform="translate(212.93 93.97)">Prime minister</text><text class="cls-98" transform="translate(571.57 317.6)">Public health</text><text class="cls-109" transform="translate(490.38 431.45)">Rajya sabha</text><text class="cls-106" transform="translate(383.77 487.06)">Republican</text><text class="cls-106" transform="translate(296.4 466.84)">Sate government</text><text class="cls-106" transform="translate(336.46 476.78)">Supreme court</text><text class="cls-108" transform="translate(511.63 123.66)">Uttar pradesh</text></g><line class="cls-111" x1="2.34" y1="372.91" y2="370.07"/></svg>