<?xml version="1.0" encoding="utf-8"?>
<!-- Generator: Adobe Illustrator 24.0.1, SVG Export Plug-In . SVG Version: 6.00 Build 0)  -->
<svg version="1.1" id="图层_1" xmlns="http://www.w3.org/2000/svg" xmlns:xlink="http://www.w3.org/1999/xlink" x="0px" y="0px"
	 viewBox="0 0 319.6 353.3" style="enable-background:new 0 0 319.6 353.3;" xml:space="preserve">
<style type="text/css">
	.st0{fill:none;stroke:#FFC274;stroke-width:0.28;stroke-opacity:0.5;}
	.st1{fill:none;stroke:#FFA24D;stroke-width:0.33;stroke-opacity:0.5;}
	.st2{fill:none;stroke:#CFE076;stroke-width:6.000000e-02;stroke-opacity:0.5;}
	.st3{fill:none;stroke:#FFC274;stroke-width:3.02;stroke-opacity:0.5;}
	.st4{fill:none;stroke:#FFC274;stroke-width:2;stroke-opacity:0.5;}
	.st5{fill:none;stroke:#9F62B9;stroke-width:0.33;stroke-opacity:0.5;}
	.st6{fill:none;stroke:#FFC274;stroke-width:0.2;stroke-opacity:0.5;}
	.st7{fill:none;stroke:#CFE076;stroke-width:4.000000e-02;stroke-opacity:0.5;}
	.st8{fill:none;stroke:#CFE076;stroke-width:0.65;stroke-opacity:0.5;}
	.st9{fill:none;stroke:#FFC274;stroke-width:4.000000e-02;stroke-opacity:0.5;}
	.st10{fill:none;stroke:#FFC274;stroke-width:5.13;stroke-opacity:0.5;}
	.st11{fill:none;stroke:#CFE076;stroke-width:0.14;stroke-opacity:0.5;}
	.st12{fill:none;stroke:#FFC274;stroke-width:0.78;stroke-opacity:0.5;}
	.st13{fill:none;stroke:#4003FF;stroke-width:2;stroke-opacity:0.5;}
	.st14{fill:none;stroke:#9F4292;stroke-width:0.3;stroke-opacity:0.5;}
	.st15{fill:none;stroke:#6F81BB;stroke-width:0.36;stroke-opacity:0.5;}
	.st16{fill:none;stroke:#6F81BB;stroke-width:1.08;stroke-opacity:0.5;}
	.st17{fill:none;stroke:#4003FF;stroke-width:0.17;stroke-opacity:0.5;}
	.st18{fill:none;stroke:#4003FF;stroke-width:4.000000e-02;stroke-opacity:0.5;}
	.st19{fill:none;stroke:#9F62B9;stroke-width:0.41;stroke-opacity:0.5;}
	.st20{fill:none;stroke:#6F81BB;stroke-width:6.000000e-02;stroke-opacity:0.5;}
	.st21{fill:none;stroke:#6F81BB;stroke-width:0.94;stroke-opacity:0.5;}
	.st22{fill:none;stroke:#7F6086;stroke-width:9.39;stroke-opacity:0.5;}
	.st23{fill:none;stroke:#6F81BB;stroke-width:0.6;stroke-opacity:0.5;}
	.st24{fill:none;stroke:#6F81BB;stroke-width:0.17;stroke-opacity:0.5;}
	.st25{fill:none;stroke:#6F81BB;stroke-width:0.14;stroke-opacity:0.5;}
	.st26{fill:none;stroke:#9F62B9;stroke-width:1.26;stroke-opacity:0.5;}
	.st27{fill:none;stroke:#6F81BB;stroke-width:0.73;stroke-opacity:0.5;}
	.st28{fill:none;stroke:#6F81BB;stroke-width:0.52;stroke-opacity:0.5;}
	.st29{fill:none;stroke:#9F62B9;stroke-width:4.75;stroke-opacity:0.5;}
	.st30{fill:none;stroke:#6F81BB;stroke-width:4.000000e-02;stroke-opacity:0.5;}
	.st31{fill:none;stroke:#9F62B9;stroke-width:0.17;stroke-opacity:0.5;}
	.st32{fill:none;stroke:#CFE076;stroke-width:9.000000e-02;stroke-opacity:0.5;}
	.st33{fill:none;stroke:#FFC274;stroke-width:1.29;stroke-opacity:0.5;}
	.st34{fill:none;stroke:#FFA24D;stroke-width:1.95;stroke-opacity:0.5;}
	.st35{fill:none;stroke:#FFA24D;stroke-width:0.41;stroke-opacity:0.5;}
	.st36{fill:none;stroke:#CFE076;stroke-width:0.62;stroke-opacity:0.5;}
	.st37{fill:none;stroke:#9F62B9;stroke-width:0.3;stroke-opacity:0.5;}
	.st38{fill:none;stroke:#9F62B9;stroke-width:1.000000e-02;stroke-opacity:0.5;}
	.st39{fill:none;stroke:#FFC274;stroke-width:5.36;stroke-opacity:0.5;}
	.st40{fill:none;stroke:#CFE076;stroke-width:0.25;stroke-opacity:0.5;}
	.st41{fill:none;stroke:#FFC274;stroke-width:2.97;stroke-opacity:0.5;}
	.st42{fill:none;stroke:#FF8226;stroke-width:0.17;stroke-opacity:0.5;}
	.st43{fill:none;stroke:#CFC04F;stroke-width:2.97;stroke-opacity:0.5;}
	.st44{fill:none;stroke:#9F4292;stroke-width:0.86;stroke-opacity:0.5;}
	.st45{fill:none;stroke:#9F4292;stroke-width:0.54;stroke-opacity:0.5;}
	.st46{fill:none;stroke:#9F4292;stroke-width:0.97;stroke-opacity:0.5;}
	.st47{fill:none;stroke:#FFA24D;stroke-width:6.000000e-02;stroke-opacity:0.5;}
	.st48{fill:none;stroke:#CFC04F;stroke-width:0.54;stroke-opacity:0.5;}
	.st49{fill:none;stroke:#CFC04F;stroke-width:1.26;stroke-opacity:0.5;}
	.st50{fill:none;stroke:#FFA24D;stroke-width:12.88;stroke-opacity:0.5;}
	.st51{fill:none;stroke:#CFC04F;stroke-width:0.28;stroke-opacity:0.5;}
	.st52{fill:none;stroke:#CFC04F;stroke-width:0.81;stroke-opacity:0.5;}
	.st53{fill:none;stroke:#FFA24D;stroke-width:2.46;stroke-opacity:0.5;}
	.st54{fill:none;stroke:#9FFF78;stroke-width:0.38;stroke-opacity:0.5;}
	.st55{fill:none;stroke:#9FFF78;stroke-width:0.46;stroke-opacity:0.5;}
	.st56{fill:none;stroke:#CFE076;stroke-width:4.57;stroke-opacity:0.5;}
	.st57{fill:none;stroke:#9FFF78;stroke-width:0.84;stroke-opacity:0.5;}
	.st58{fill:none;stroke:#9FFF78;stroke-width:6.000000e-02;stroke-opacity:0.5;}
	.st59{fill:none;stroke:#CFC04F;stroke-width:0.14;stroke-opacity:0.5;}
	.st60{fill:none;stroke:#9F4292;stroke-width:0.84;stroke-opacity:0.5;}
	.st61{fill:none;stroke:#9F4292;stroke-width:1.000000e-02;stroke-opacity:0.5;}
	.st62{fill:none;stroke:#9F4292;stroke-width:1.48;stroke-opacity:0.5;}
	.st63{fill:none;stroke:#CFC04F;stroke-width:0.17;stroke-opacity:0.5;}
	.st64{fill:none;stroke:#FFA24D;stroke-width:6.27;stroke-opacity:0.5;}
	.st65{fill:none;stroke:#FFA24D;stroke-width:11.17;stroke-opacity:0.5;}
	.st66{fill:none;stroke:#6F81BB;stroke-width:0.81;stroke-opacity:0.5;}
	.st67{fill:none;stroke:#6F81BB;stroke-width:1.61;stroke-opacity:0.5;}
	.st68{fill:none;stroke:#CFE076;stroke-width:2;stroke-opacity:0.5;}
	.st69{fill:none;stroke:#CFC04F;stroke-width:0.44;stroke-opacity:0.5;}
	.st70{fill:none;stroke:#9FFF78;stroke-width:1.98;stroke-opacity:0.5;}
	.st71{fill:none;stroke:#9FFF78;stroke-width:2.65;stroke-opacity:0.5;}
	.st72{fill:none;stroke:#9FFF78;stroke-width:0.14;stroke-opacity:0.5;}
	.st73{fill:none;stroke:#257F48;stroke-width:1.5;stroke-opacity:0.5;}
	.st74{fill:none;stroke:#CFE076;stroke-width:21.7;stroke-opacity:0.5;}
	.st75{fill:none;stroke:#9FFF78;stroke-width:0.49;stroke-opacity:0.5;}
	.st76{fill:none;stroke:#9FFF78;stroke-width:0.73;stroke-opacity:0.5;}
	.st77{fill:none;stroke:#257F48;stroke-width:2;stroke-opacity:0.5;}
	.st78{fill:none;stroke:#CFE076;stroke-width:1.82;stroke-opacity:0.5;}
	.st79{fill:none;stroke:#4003FF;stroke-width:1.72;stroke-opacity:0.5;}
	.st80{fill:none;stroke:#7F6086;stroke-width:12.27;stroke-opacity:0.5;}
	.st81{fill:none;stroke:#6F81BB;stroke-width:0.2;stroke-opacity:0.5;}
	.st82{fill:none;stroke:#6F81BB;stroke-width:0.65;stroke-opacity:0.5;}
	.st83{fill:none;stroke:#9F62B9;stroke-width:3.07;stroke-opacity:0.5;}
	.st84{fill:none;stroke:#6F81BB;stroke-width:0.62;stroke-opacity:0.5;}
	.st85{fill:none;stroke:#6F81BB;stroke-width:9.000000e-02;stroke-opacity:0.5;}
	.st86{fill:none;stroke:#7F6086;stroke-width:7.44;stroke-opacity:0.5;}
	.st87{fill:none;stroke:#7F6086;stroke-width:5.76;stroke-opacity:0.5;}
	.st88{fill:none;stroke:#CFE076;stroke-width:0.41;stroke-opacity:0.5;}
	.st89{fill:none;stroke:#FFC274;stroke-width:4.62;stroke-opacity:0.5;}
	.st90{fill:none;stroke:#FFC274;stroke-width:0.22;stroke-opacity:0.5;}
	.st91{fill:none;stroke:#FFA24D;stroke-width:1.66;stroke-opacity:0.5;}
	.st92{fill:none;stroke:#9FFF78;stroke-width:0.33;stroke-opacity:0.5;}
	.st93{fill:none;stroke:#9FFF78;stroke-width:9.000000e-02;stroke-opacity:0.5;}
	.st94{fill:none;stroke:#CFE076;stroke-width:9.73;stroke-opacity:0.5;}
	.st95{fill:none;stroke:#9FFF78;stroke-width:0.78;stroke-opacity:0.5;}
	.st96{fill:none;stroke:#9FFF78;stroke-width:0.12;stroke-opacity:0.5;}
	.st97{fill:none;stroke:#CFE076;stroke-width:12.19;stroke-opacity:0.5;}
	.st98{fill:none;stroke:#9FFF78;stroke-width:0.44;stroke-opacity:0.5;}
	.st99{fill:none;stroke:#9FFF78;stroke-width:0.3;stroke-opacity:0.5;}
	.st100{fill:none;stroke:#CFE076;stroke-width:2.59;stroke-opacity:0.5;}
	.st101{fill:none;stroke:#CFE076;stroke-width:0.36;stroke-opacity:0.5;}
	.st102{fill:none;stroke:#CFE076;stroke-width:4.11;stroke-opacity:0.5;}
	.st103{fill:none;stroke:#CFE076;stroke-width:0.89;stroke-opacity:0.5;}
	.st104{fill:none;stroke:#CFE076;stroke-width:4.73;stroke-opacity:0.5;}
	.st105{fill:none;stroke:#CFE076;stroke-width:5.29;stroke-opacity:0.5;}
	.st106{fill:none;stroke:#FFA24D;stroke-width:1.5;stroke-opacity:0.5;}
	.st107{fill:none;stroke:#CFE076;stroke-width:6.67;stroke-opacity:0.5;}
	.st108{fill:none;stroke:#FFC274;stroke-width:25;stroke-opacity:0.5;}
	.st109{fill:none;stroke:#9FFF78;stroke-width:0.17;stroke-opacity:0.5;}
	.st110{fill:none;stroke:#9F62B9;stroke-width:0.92;stroke-opacity:0.5;}
	.st111{fill:none;stroke:#CFE076;stroke-width:0.22;stroke-opacity:0.5;}
	.st112{fill:none;stroke:#CFE076;stroke-width:0.46;stroke-opacity:0.5;}
	.st113{fill:none;stroke:#CFC04F;stroke-width:0.39;stroke-opacity:0.5;}
	.st114{fill:none;stroke:#9F4292;stroke-width:5.000000e-02;stroke-opacity:0.5;}
	.st115{fill:none;stroke:#FFA24D;stroke-width:2.07;stroke-opacity:0.5;}
	.st116{fill:#FFC274;fill-opacity:0.8;stroke:#000000;stroke-width:1.000000e-02;stroke-opacity:0.8;}
	.st117{fill:#98AAC9;fill-opacity:0.8;stroke:#000000;stroke-width:1.000000e-02;stroke-opacity:0.8;}
	.st118{fill:#FF8226;fill-opacity:0.8;stroke:#000000;stroke-width:1.000000e-02;stroke-opacity:0.8;}
	.st119{fill:#BDCE9C;fill-opacity:0.8;stroke:#000000;stroke-width:1.000000e-02;stroke-opacity:0.8;}
	.st120{font-family:'ArialMT';}
	.st121{font-size:7px;}
	.st122{font-size:8px;}
	.st123{font-size:6px;}
	.st124{font-size:9px;}
	.st125{font-size:10px;}
	.st126{font-size:24px;}
	.st127{font-size:13px;}
</style>
<title>ni_final</title>
<g id="edges">
	<path class="st0" d="M306.8,178.6c-25.4-9-49.8-60.6-40.8-86"/>
	<path class="st1" d="M306.8,178.6c11.8,15.1,6.8,55.4-8.4,67.2"/>
	<path class="st2" d="M306.8,178.6c6.9,56-66.7,150.4-122.7,157.3"/>
	<path class="st3" d="M306.8,178.6c-55.1-0.6-136.9-84.3-136.2-139.4"/>
	<path class="st4" d="M306.8,178.6C268.7,170.4,223.9,101,232,63"/>
	<path class="st5" d="M284.1,119.9c-48.9,46.9-192.8,43.9-239.7-5"/>
	<path class="st6" d="M284.1,119.9c9,2.3,19.1,19.2,16.8,28.2"/>
	<path class="st7" d="M284.1,119.9c-1.6,77-119.4,190.2-196.5,188.6"/>
	<path class="st8" d="M284.1,119.9c23.2,63.2-36.8,192.9-100,216.1"/>
	<path class="st9" d="M284.1,119.9c22.5,14.1,35.2,68.9,21.1,91.4"/>
	<path class="st7" d="M284.1,119.9c15.4,70.8-67.6,200.2-138.5,215.6"/>
	<path class="st10" d="M284.1,119.9c-38.8,6.6-107-41.9-113.5-80.7"/>
	<path class="st11" d="M284.1,119.9c-25.9,73.3-174.6,144.5-247.9,118.6"/>
	<path class="st12" d="M284.1,119.9c-21.8-1-53-35.1-52.1-56.9"/>
	<path class="st13" d="M44.4,114.8C46,96.6,75.5,71.7,93.8,73.3"/>
	<path class="st14" d="M44.4,114.8c77-24.6,229.4,53.9,254,130.9"/>
	<path class="st15" d="M44.4,114.8c47.4,30.1,73.3,146.3,43.2,193.6"/>
	<path class="st16" d="M44.4,114.8c72.1,16.3,156,149,139.7,221.1"/>
	<path class="st17" d="M44.4,114.8c3.9,8.7-3.4,27.5-12.1,31.4"/>
	<path class="st18" d="M44.4,114.8c0.3-9.8,15.5-24.1,25.4-23.8"/>
	<path class="st19" d="M44.4,114.8c71.4-32.9,228,25,260.8,96.4"/>
	<path class="st20" d="M44.4,114.8c56.2,28.2,98.3,154.8,70.2,211"/>
	<path class="st21" d="M44.4,114.8c64.4,23.9,125.1,156.3,101.2,220.7"/>
	<path class="st22" d="M44.4,114.8c63-0.8,80.5-23.8,126.2-75.7"/>
	<path class="st23" d="M44.4,114.8c23.1,26.4,18.1,100.6-8.2,123.6"/>
	<path class="st24" d="M44.4,114.8c16.3,21.6,8.4,78.6-13.2,94.9"/>
	<path class="st25" d="M44.4,114.8c10,15.9,1.2,54.7-14.7,64.8"/>
	<path class="st26" d="M44.4,114.8C71.5,66.9,184.1,35.8,232,63"/>
	<path class="st20" d="M93.8,73.3c45.8,48.3,42.2,189.4-6.1,235.2"/>
	<path class="st27" d="M93.8,73.3c70.6,34.5,124.8,192.1,90.3,262.7"/>
	<path class="st28" d="M93.8,73.3c62.8,42.1,93.9,199.4,51.9,262.2"/>
	<path class="st29" d="M93.8,73.3c29.8,0,59-7.9,76.8-34.1"/>
	<path class="st30" d="M93.8,73.3c21.5,44.6-13,143.7-57.6,165.2"/>
	<path class="st25" d="M93.8,73.3c14.8,39.8-22.7,121.7-62.5,136.5"/>
	<path class="st31" d="M93.8,73.3C119.3,43.5,202.3,37.4,232,63"/>
	<path class="st32" d="M300.9,148C315.1,209,245,321.7,184.1,335.9"/>
	<path class="st33" d="M300.9,148c-47.8,4.3-126-61-130.3-108.9"/>
	<path class="st34" d="M266,92.6c37.1,24.1,56.6,116,32.4,153.1"/>
	<path class="st35" d="M266,92.6c39.2,34.3,46.4,144.6,12,183.8"/>
	<path class="st36" d="M266,92.6c32.3,65-16.9,211-81.9,243.3"/>
	<path class="st37" d="M266,92.6c-36.3,23.6-126,4.6-149.6-31.7"/>
	<path class="st38" d="M266,92.6c-39.6,38.9-157.3,38-196.2-1.6"/>
	<path class="st7" d="M266,92.6c24.5,72.6-47.7,218.4-120.4,242.9"/>
	<path class="st39" d="M266,92.6c-29.8,8.4-87-23.7-95.4-53.5"/>
	<path class="st40" d="M266,92.6c-29.9,64.6-171.6,116.8-236.3,86.9"/>
	<path class="st41" d="M266,92.6c-12.7,0.9-33.1-16.9-34-29.7"/>
	<path class="st42" d="M298.4,245.7c2.1,10.2-10.2,28.6-20.4,30.7"/>
	<path class="st43" d="M298.4,245.7c-4.8,40.9-73.4,95-114.4,90.2"/>
	<path class="st44" d="M298.4,245.7c-73.4-0.6-182.6-111.5-182-184.8"/>
	<path class="st45" d="M298.4,245.7c-73.1,33.3-232.8-26.4-266.1-99.5"/>
	<path class="st46" d="M298.4,245.7c-76.7,14.8-213.9-78-228.7-154.7"/>
	<path class="st47" d="M298.4,245.7c-5.5-8.3-1.5-29,6.8-34.5"/>
	<path class="st48" d="M298.4,245.7c-20.8,52.8-131.1,100.8-183.8,80.1"/>
	<path class="st49" d="M298.4,245.7c-12.6,48.5-104.3,102.4-152.8,89.7"/>
	<path class="st50" d="M298.4,245.7C231.5,230,154.8,106.1,170.6,39.2"/>
	<path class="st51" d="M298.4,245.7c-60.6,46.2-221,24.6-267.2-36"/>
	<path class="st52" d="M298.4,245.7c-67,40.5-228.2,0.8-268.7-66.2"/>
	<path class="st53" d="M298.4,245.7C248.6,222.5,208.8,112.8,232,63"/>
	<path class="st54" d="M87.7,308.4c24.8-13.8,82.7,2.7,96.4,27.5"/>
	<path class="st55" d="M87.7,308.4c17-6.2,51.8,10,58,27"/>
	<path class="st56" d="M87.7,308.4c-37.3-70.4,12.5-232,82.9-269.3"/>
	<path class="st57" d="M87.7,308.4c-24.3-3.7-55.2-45.7-51.5-70"/>
	<path class="st58" d="M87.7,308.4c-37.4-14.2-72.1-91.5-57.9-128.9"/>
	<path class="st11" d="M87.7,308.4C67.4,230.5,154.1,83.2,232,63"/>
	<path class="st59" d="M278.1,276.4c-47-3.8-73.4,0.4-94,59.5"/>
	<path class="st60" d="M278.1,276.4c-75.4-10.8-172.4-140.1-161.7-215.5"/>
	<path class="st61" d="M278.1,276.4c-75.2,23.1-222.6-55-245.7-130.2"/>
	<path class="st62" d="M278.1,276.4C199.3,281,74.4,169.8,69.8,91.1"/>
	<path class="st63" d="M278.1,276.4c-47.9,43-184.2,35.7-227.2-12.1"/>
	<path class="st64" d="M278.1,276.4c-68.9-26-133.4-168.3-107.5-237.3"/>
	<path class="st65" d="M278.1,276.4c-51.9-33.5-79.5-161.6-46-213.5"/>
	<path class="st66" d="M184.1,335.9c-68.5-41.5-109.2-206.5-67.7-275"/>
	<path class="st67" d="M184.1,335.9c-68.3-7.6-159.3-121.4-151.8-189.7"/>
	<path class="st67" d="M184.1,335.9c-71.8-26.1-140.4-173-114.3-244.9"/>
	<path class="st68" d="M184.1,335.9c-0.7-49.2,72-124,121.2-124.7"/>
	<path class="st69" d="M184.1,335.9c8.6-22.5,55.3-43.3,77.8-34.7"/>
	<path class="st70" d="M184.1,335.9c-15.9,11.9-57.6,5.8-69.5-10.1"/>
	<path class="st71" d="M184.1,335.9c-7.8,7.6-30.9,7.3-38.4-0.4"/>
	<path class="st72" d="M184.1,335.9c-32.6,13.4-101.5-15.5-114.8-48.1"/>
	<path class="st73" d="M184.1,335.9c-33.1-71.6-70.7-98-133.2-71.6"/>
	<path class="st74" d="M184.1,335.9c-62-56.6-70.2-234.7-13.5-296.8"/>
	<path class="st75" d="M184.1,335.9C135,346,46.3,287.5,36.2,238.5"/>
	<path class="st76" d="M184.1,335.9c-55.8,5.3-147.5-70.4-152.8-126.2"/>
	<path class="st77" d="M184.1,335.9c-9.3-48.1-56.1-131.3-154.4-156.4"/>
	<path class="st78" d="M184.1,335.9c-45-64.2-16.2-227.9,47.9-273"/>
	<path class="st79" d="M32.3,146.2c35.8-2.3,42.8-47.5,37.5-55.2"/>
	<path class="st67" d="M32.3,146.2c52.4,19.5,101.7,127.2,82.3,179.6"/>
	<path class="st27" d="M32.3,146.2C92.8,161.4,160.8,275,145.6,335.5"/>
	<path class="st15" d="M32.3,146.2c27.3,19.9,38.4,90.8,18.5,118.1"/>
	<path class="st80" d="M32.3,146.2c61-13.6,138.6-59.4,138.3-107"/>
	<path class="st81" d="M32.3,146.2c12.5,12.9,11.8,51-1.1,63.5"/>
	<path class="st82" d="M32.3,146.2c6.2,7.2,4.6,27.2-2.6,33.3"/>
	<path class="st83" d="M32.3,146.2C55.6,89.6,175.4,39.7,232,63"/>
	<path class="st84" d="M69.8,91.1c55.9,38,82.8,178.8,44.8,234.7"/>
	<path class="st85" d="M69.8,91.1c64.1,33.7,109.6,180.4,75.9,244.4"/>
	<path class="st24" d="M69.8,91.1c30.9,38.4,19.5,142.4-18.9,173.3"/>
	<path class="st86" d="M69.8,91.1c27.9,4.5,88.5-19.4,100.8-51.9"/>
	<path class="st30" d="M69.8,91.1c9.7,25.7-14.3,78.8-40.1,88.5"/>
	<path class="st87" d="M69.8,91.1C96.6,53,194,36.2,232,63"/>
	<path class="st88" d="M305.3,211.3c-7.1,56.8-102.8,131.3-159.6,124.2"/>
	<path class="st89" d="M305.3,211.3c-61.4-7.5-142.1-110.7-134.7-172.1"/>
	<path class="st7" d="M305.3,211.3c-48.4,59.3-209.8,75.6-269.1,27.2"/>
	<path class="st2" d="M305.3,211.3C243.8,260,78.5,241,29.7,179.6"/>
	<path class="st90" d="M305.3,211.3C261,196.3,217,107.3,232,63"/>
	<path class="st91" d="M261.8,301.2c-70.7-34.1-125.4-191.3-91.3-262"/>
	<path class="st35" d="M261.8,301.2C208.2,259.5,190.4,116.6,232,63"/>
	<path class="st92" d="M114.6,325.8c8.2-4.3,26.8,1.5,31,9.7"/>
	<path class="st93" d="M114.6,325.8c-25,0.5-63.3-36.5-63.8-61.5"/>
	<path class="st94" d="M114.6,325.8c-46.1-68.5-12.5-240.5,56-286.6"/>
	<path class="st95" d="M114.6,325.8c-46.2-12.3-97.2-100-84.9-146.2"/>
	<path class="st2" d="M114.6,325.8C85.5,249.7,156,92,232,63"/>
	<path class="st96" d="M145.6,335.5c-24.8,5.7-70.7-22.9-76.4-47.7"/>
	<path class="st97" d="M145.6,335.5c-54.3-64.3-39.3-242,24.9-296.3"/>
	<path class="st98" d="M145.6,335.5c-41.3,2.5-107-55.7-109.5-97"/>
	<path class="st77" d="M145.6,335.5c-12-59.8-26.7-122.9-114.4-125.8"/>
	<path class="st99" d="M145.6,335.5c-54.4-8-123.9-101.6-115.9-155.9"/>
	<path class="st36" d="M145.6,335.5C108.4,263.7,160.3,100.2,232,63"/>
	<path class="st100" d="M69.3,287.8c-29.5-70,31.3-219.2,101.3-248.6"/>
	<path class="st101" d="M69.3,287.8C56.8,210.3,154.5,75.4,232,63"/>
	<path class="st102" d="M50.8,264.3c-21.1-69,50.8-204.1,119.7-225.1"/>
	<path class="st103" d="M50.8,264.3C46.8,187.8,155.5,67,232,63"/>
	<path class="st104" d="M170.6,39.2c13,66.7-67.7,186.3-134.4,199.3"/>
	<path class="st105" d="M170.6,39.2c6.2,62-77.4,164.3-139.3,170.6"/>
	<path class="st106" d="M170.6,39.2c70,41.9,112.1,209.7,70.2,279.7"/>
	<path class="st107" d="M170.6,39.2C170.5,95.4,86,179.7,29.7,179.6"/>
	<path class="st108" d="M170.6,39.2c17.1-7.5,53.9,6.8,61.4,23.8"/>
	<path class="st109" d="M36.2,238.5c-13.1-10.5-17-45.8-6.5-58.9"/>
	<path class="st47" d="M240.8,318.9c-52.9-49.4-58.2-203-8.8-255.9"/>
	<path class="st110" d="M232,63c-23.5,22.7-92.9,21.5-115.6-2"/>
	<path class="st111" d="M232,63c-10.8,69.5-131.3,157.6-200.8,146.8"/>
	<path class="st112" d="M232,63C214.9,126.7,93.5,196.7,29.7,179.6"/>
	<path class="st113" d="M184.1,335.9c5.9-7.5,25.9-10,33.5-4.1"/>
	<path class="st114" d="M32.3,146.2c74.2,0.1,185.3,111.4,185.2,185.6"/>
	<path class="st114" d="M69.8,91.1c77.8,18.6,166.4,163,147.8,240.7"/>
	<path class="st63" d="M217.5,331.8c-21.8,19.4-83.6,15.8-103-6"/>
	<path class="st115" d="M217.5,331.8c-67.9-49.1-96.1-224.7-47-292.6"/>
</g>
<g id="nodes">
	<circle class="st116" cx="307" cy="179.4" r="11.1"/>
	<circle class="st116" cx="284.4" cy="120.7" r="11.7"/>
	<circle class="st117" cx="44.7" cy="115.7" r="13.1"/>
	<circle class="st117" cx="94" cy="74.1" r="11.5"/>
	<circle class="st116" cx="301.1" cy="148.9" r="10.5"/>
	<circle class="st116" cx="266.3" cy="93.5" r="12.2"/>
	<circle class="st118" cx="298.7" cy="246.6" r="14.4"/>
	<circle class="st119" cx="87.9" cy="309.3" r="11.6"/>
	<circle class="st118" cx="278.3" cy="277.3" r="13.1"/>
	<circle class="st119" cx="184.3" cy="336.8" r="16.5"/>
	<circle class="st117" cx="116.7" cy="61.8" r="10.8"/>
	<circle class="st117" cx="32.6" cy="147.1" r="13.6"/>
	<circle class="st117" cx="70" cy="91.9" r="13.2"/>
	<circle class="st116" cx="305.5" cy="212.1" r="11.6"/>
	<circle class="st118" cx="262.1" cy="302" r="10.7"/>
	<circle class="st119" cx="114.9" cy="326.6" r="12.8"/>
	<circle class="st119" cx="145.9" cy="336.3" r="13.7"/>
	
		<ellipse transform="matrix(3.327796e-02 -0.9994 0.9994 3.327796e-02 -221.293 348.4962)" class="st119" cx="69.5" cy="288.6" rx="11" ry="11"/>
	<circle class="st119" cx="51.1" cy="265.1" r="11.4"/>
	<circle class="st116" cx="170.8" cy="40" r="40"/>
	<circle class="st119" cx="36.4" cy="239.3" r="11.7"/>
	<circle class="st119" cx="31.5" cy="210.6" r="11.8"/>
	<circle class="st118" cx="241.1" cy="319.7" r="10.2"/>
	<circle class="st119" cx="29.1" cy="180.4" r="12.4"/>
	<circle class="st116" cx="232.3" cy="63.8" r="21.9"/>
	<circle class="st118" cx="217.8" cy="332.6" r="10"/>
</g>
<g id="node-labels">
	<text transform="matrix(1 0 0 1 293.96 179.86)" class="st120 st121">America</text>
	<text transform="matrix(1 0 0 1 264.66 121.13)" class="st120 st121">Boko Haram</text>
	<text transform="matrix(1 0 0 1 32.85 116.27)" class="st120 st122">Buhari</text>
	<text transform="matrix(1 0 0 1 72.16 74.56)" class="st120 st121">Bukola Saraki</text>
	<text transform="matrix(1 0 0 1 291.55 149.15)" class="st120 st123">Chibok</text>
	<text transform="matrix(1 0 0 1 256.87 93.92)" class="st120 st121">China</text>
	<text transform="matrix(1 0 0 1 280.43 247.41)" class="st120 st124">Covid-19</text>
	<text transform="matrix(1 0 0 1 60.82 310.07)" class="st120 st121">Democratic Party</text>
	<text transform="matrix(1 0 0 1 267.84 277.9)" class="st120 st122">Ebola</text>
	<text transform="matrix(1 0 0 1 138.24 348.77)" class="st120 st125">Federal Government</text>
	<text transform="matrix(1 0 0 1 96.4 62.01)" class="st120 st123">Health Minister</text>
	<text transform="matrix(1 0 0 1 8.09 147.69)" class="st120 st122">Health Sector</text>
	<text transform="matrix(1 0 0 1 42.29 92.52)" class="st120 st122">Health workers</text>
	<text transform="matrix(1 0 0 1 293.19 212.53)" class="st120 st121">Kaduna</text>
	<text transform="matrix(1 0 0 1 245.34 302.29)" class="st120 st123">Lassa fever</text>
	<text transform="matrix(1 0 0 1 79.48 327.26)" class="st120 st122">Medical</text>
	<text transform="matrix(1 0 0 1 107.05 327.26)" class="st120 st122"> </text>
	<text transform="matrix(1 0 0 1 108.83 327.26)" class="st120 st122">Association</text>
	<text transform="matrix(1 0 0 1 112.74 339.33)" class="st120 st122">National</text>
	<text transform="matrix(1 0 0 1 142.09 339.33)" class="st120 st122"> </text>
	<text transform="matrix(1 0 0 1 143.87 339.33)" class="st120 st122">Assembly</text>
	<text transform="matrix(1 0 0 1 42.79 289.4)" class="st120 st121">National Hospital</text>
	<text transform="matrix(1 0 0 1 19.53 265.95)" class="st120 st121">News organizations</text>
	<text transform="matrix(1 0 0 1 132.58 44.72)" class="st120 st126">Nigeria</text>
	<text transform="matrix(1 0 0 1 0 240.09)" class="st120 st121">Progressives Congress</text>
	<text transform="matrix(1 0 0 1 2.26 211.01)" class="st120 st121">Senate Committee</text>
	<text transform="matrix(1 0 0 1 219.37 319.98)" class="st120 st123">Sexual violence</text>
	<text transform="matrix(1 0 0 1 1.32 180.86)" class="st120 st121">State Government</text>
	<text transform="matrix(1 0 0 1 189.89 65.37)" class="st120 st127">W</text>
	<text transform="matrix(1 0 0 1 201.93 65.37)" class="st120 st127">estern</text>
	<text transform="matrix(1 0 0 1 238.06 65.37)" class="st120 st127"> </text>
	<text transform="matrix(1 0 0 1 240.95 65.37)" class="st120 st127">Africa</text>
	<text transform="matrix(1 0 0 1 208.22 335.88)" class="st120 st123">Labour</text>
</g>
</svg>
