<?xml version="1.0" encoding="utf-8"?>
<!-- Generator: Adobe Illustrator 24.0.1, SVG Export Plug-In . SVG Version: 6.00 Build 0)  -->
<svg version="1.1" id="图层_1" xmlns="http://www.w3.org/2000/svg" xmlns:xlink="http://www.w3.org/1999/xlink" x="0px" y="0px"
	 viewBox="0 0 246.8 284.6" style="enable-background:new 0 0 246.8 284.6;" xml:space="preserve">
<style type="text/css">
	.st0{opacity:0.85;}
	.st1{fill:none;stroke:#257F48;stroke-width:2;stroke-opacity:0.8;}
	.st2{fill:none;stroke:#CAE063;stroke-width:0.1186;stroke-opacity:0.8;}
	.st3{fill:none;stroke:#CAE063;stroke-width:0.5532;stroke-opacity:0.8;}
	.st4{fill:none;stroke:#FFA461;stroke-width:0.1186;stroke-opacity:0.8;}
	.st5{fill:none;stroke:#CAE063;stroke-width:0.2273;stroke-opacity:0.8;}
	.st6{fill:none;stroke:#CAE063;stroke-width:1.2051;stroke-opacity:0.8;}
	.st7{fill:none;stroke:#CAE063;stroke-width:1.000000e-02;stroke-opacity:0.8;}
	.st8{fill:none;stroke:#FFA461;stroke-width:0.4446;stroke-opacity:0.8;}
	.st9{fill:none;stroke:#FFC274;stroke-width:1.6396;stroke-opacity:0.8;}
	.st10{fill:none;stroke:#CAC250;stroke-width:0.8791;stroke-opacity:0.8;}
	.st11{fill:none;stroke:#5DB0A9;stroke-width:0.2273;stroke-opacity:0.8;}
	.st12{fill:none;stroke:#2562FF;stroke-opacity:0.8;}
	.st13{fill:none;stroke:#9292B9;stroke-width:0.8791;stroke-opacity:0.8;}
	.st14{fill:none;stroke:#CAC250;stroke-width:0.1186;stroke-opacity:0.8;}
	.st15{fill:none;stroke:#CAC250;stroke-width:1.0964;stroke-opacity:0.8;}
	.st16{fill:none;stroke:#FFA461;stroke-width:0.8791;stroke-opacity:0.8;}
	.st17{fill:none;stroke:#CAC250;stroke-width:0.6618;stroke-opacity:0.8;}
	.st18{fill:none;stroke:#CAC250;stroke-width:0.5532;stroke-opacity:0.8;}
	.st19{fill:none;stroke:#FF864E;stroke-width:0.8791;stroke-opacity:0.8;}
	.st20{fill:none;stroke:#9274A6;stroke-width:0.1186;stroke-opacity:0.8;}
	.st21{fill:none;stroke:#FFA461;stroke-width:1.4223;stroke-opacity:0.8;}
	.st22{fill:none;stroke:#FFA461;stroke-width:1.531;stroke-opacity:0.8;}
	.st23{fill:none;stroke:#9274A6;stroke-width:1.000000e-02;stroke-opacity:0.8;}
	.st24{fill:none;stroke:#257F48;stroke-width:1.5;stroke-opacity:0.8;}
	.st25{fill:none;stroke:#5DB0A9;stroke-width:0.1186;stroke-opacity:0.8;}
	.st26{fill:none;stroke:#CAC250;stroke-width:0.4446;stroke-opacity:0.8;}
	.st27{fill:none;stroke:#CAE063;stroke-width:1.531;stroke-opacity:0.8;}
	.st28{fill:none;stroke:#CAE063;stroke-width:0.7705;stroke-opacity:0.8;}
	.st29{fill:none;stroke:#FFC274;stroke-width:1.9655;stroke-opacity:0.8;}
	.st30{fill:none;stroke:#FFC274;stroke-width:2.4001;stroke-opacity:0.8;}
	.st31{fill:none;stroke:#FFA461;stroke-width:0.2273;stroke-opacity:0.8;}
	.st32{fill:none;stroke:#FFA461;stroke-width:1.2051;stroke-opacity:0.8;}
	.st33{fill:none;stroke:#CAE063;stroke-width:0.9878;stroke-opacity:0.8;}
	.st34{fill:none;stroke:#FFC274;stroke-width:0.6618;stroke-opacity:0.8;}
	.st35{fill:none;stroke:#FFC274;stroke-width:2.1828;stroke-opacity:0.8;}
	.st36{fill:none;stroke:#9292B9;stroke-width:1.000000e-02;stroke-opacity:0.8;}
	.st37{fill:none;stroke:#FFA461;stroke-width:1.0964;stroke-opacity:0.8;}
	.st38{fill:none;stroke:#FFC274;stroke-width:1.4223;stroke-opacity:0.8;}
	.st39{fill:none;stroke:#CAE063;stroke-width:2.1828;stroke-opacity:0.8;}
	.st40{fill:none;stroke:#9292B9;stroke-width:0.7705;stroke-opacity:0.8;}
	.st41{fill:none;stroke:#CAE063;stroke-width:4.4643;stroke-opacity:0.8;}
	.st42{fill:none;stroke:#9292B9;stroke-width:1.531;stroke-opacity:0.8;}
	.st43{fill:none;stroke:#FFC274;stroke-width:1.7483;stroke-opacity:0.8;}
	.st44{fill:none;stroke:#FFC274;stroke-width:4.4643;stroke-opacity:0.8;}
	.st45{fill:none;stroke:#FFA461;stroke-width:0.5532;stroke-opacity:0.8;}
	.st46{fill:none;stroke:#9292B9;stroke-width:2.1828;stroke-opacity:0.8;}
	.st47{fill:none;stroke:#FFA461;stroke-width:2.6174;stroke-opacity:0.8;}
	.st48{fill:none;stroke:#FFC274;stroke-width:3.2692;stroke-opacity:0.8;}
	.st49{fill:none;stroke:#FFC274;stroke-width:1.531;stroke-opacity:0.8;}
	.st50{fill:none;stroke:#CAE063;stroke-width:1.8569;stroke-opacity:0.8;}
	.st51{fill:none;stroke:#CAE063;stroke-width:12.1778;stroke-opacity:0.8;}
	.st52{fill:none;stroke:#CAE063;stroke-width:8.484;stroke-opacity:0.8;}
	.st53{fill:none;stroke:#FFA461;stroke-width:2.9433;stroke-opacity:0.8;}
	.st54{fill:none;stroke:#CAE063;stroke-width:2.2915;stroke-opacity:0.8;}
	.st55{fill:none;stroke:#FFA461;stroke-width:1.9655;stroke-opacity:0.8;}
	.st56{fill:none;stroke:#CAE063;stroke-width:5.4421;stroke-opacity:0.8;}
	.st57{fill:none;stroke:#FFC274;stroke-width:6.6371;stroke-opacity:0.8;}
	.st58{fill:none;stroke:#FFA461;stroke-width:5.0075;stroke-opacity:0.8;}
	.st59{fill:none;stroke:#FFC274;stroke-width:20;stroke-opacity:0.8;}
	.st60{fill:none;stroke:#FFA461;stroke-width:9;stroke-opacity:0.8;}
	.st61{fill:none;stroke:#FFA461;stroke-width:8;stroke-opacity:0.8;}
	.st62{fill:none;stroke:#FFA461;stroke-width:1.6396;stroke-opacity:0.8;}
	.st63{fill:none;stroke:#CAE063;stroke-width:2.726;stroke-opacity:0.8;}
	.st64{fill:none;stroke:#FFC274;stroke-width:16.958;stroke-opacity:0.8;}
	.st65{fill:none;stroke:#FFC274;stroke-width:3.4865;stroke-opacity:0.8;}
	.st66{fill:none;stroke:#FFC274;stroke-width:16.0889;stroke-opacity:0.8;}
	.st67{fill:#FFC274;fill-opacity:0.8;stroke:#000000;stroke-width:1.000000e-02;stroke-opacity:0.8;}
	.st68{fill:#BDCE9C;fill-opacity:0.8;stroke:#000000;stroke-width:1.000000e-02;stroke-opacity:0.8;}
	.st69{fill:#FF864E;fill-opacity:0.8;stroke:#000000;stroke-width:1.000000e-02;stroke-opacity:0.8;}
	.st70{fill:#98AAC9;fill-opacity:0.8;stroke:#000000;stroke-width:1.000000e-02;stroke-opacity:0.8;}
	.st71{font-family:'ArialMT';}
	.st72{font-size:30px;}
	.st73{font-size:11px;}
	.st74{font-size:8px;}
	.st75{font-size:9px;}
	.st76{font-size:7px;}
	.st77{font-size:10px;}
	.st78{font-size:6px;}
</style>
<g id="edges" class="st0">
	<path class="st1" d="M73.4,263.3c-8-81.3-8-81.3-62.6-116.8"/>
	<path class="st2" d="M228.2,192.6c-26,46.9-135.5,78.3-182.5,52.2"/>
	<path class="st3" d="M228.2,192.6c-16.8,45.1-109.7,87.6-154.8,70.8"/>
	<path class="st4" d="M228.2,192.6c-9.4,41-85.1,88.4-126.2,79"/>
	<path class="st5" d="M215.4,104.5c-5.9,62-107.7,146.2-169.7,140.3"/>
	<path class="st6" d="M215.4,104.5c3.4,60.2-81.8,155.4-142,158.8"/>
	<path class="st4" d="M215.4,104.5c15.9,51.1-36.9,151.5-88,167.4"/>
	<path class="st7" d="M215.4,104.5c-27.5,53.9-149.6,93.6-203.6,66.1"/>
	<path class="st8" d="M215.4,104.5c10.7,56.1-57.3,156.3-113.4,167"/>
	<path class="st2" d="M215.4,104.5C194.3,162.2,76,216.9,18.4,195.7"/>
	<path class="st9" d="M215.4,104.5c20.2,15.1,27.8,67.9,12.8,88.1"/>
	<path class="st8" d="M215.4,104.5c20.8,45.6-16.4,145.3-62,166.1"/>
	<path class="st10" d="M176.5,261c-29.4,22.9-107.8,13.2-130.7-16.2"/>
	<path class="st11" d="M24.4,100.7C66.7,123.4,96.2,221,73.4,263.3"/>
	<path class="st12" d="M24.4,100.7c-0.3-7.4,10.4-18.8,17.7-19.1"/>
	<path class="st13" d="M24.4,100.7c39-37.4,153.6-35.2,191.1,3.8"/>
	<path class="st14" d="M199.3,243.9c-57.2,18.2-170.3-40.3-188.5-97.4"/>
	<path class="st15" d="M199.3,243.9C178,273,102.5,284.6,73.4,263.3"/>
	<path class="st16" d="M199.3,243.9c-24.7-31.1-15-114.7,16.1-139.4"/>
	<path class="st17" d="M216.2,222.6c-29.6,38.5-131.9,51.9-170.4,22.2"/>
	<path class="st18" d="M216.2,222.6c-20.4,36.7-106,61.1-142.7,40.7"/>
	<path class="st19" d="M216.2,222.6c-13,32.6-81.5,62-114.1,49"/>
	<path class="st20" d="M216.2,222.6c-63,6.6-167.4-78-174-141"/>
	<path class="st21" d="M216.2,222.6c-3.6-8.4,3.6-26.4,12.1-30"/>
	<path class="st22" d="M216.2,222.6c-23.8-23.5-24.2-94.3-0.7-118.1"/>
	<path class="st23" d="M216.2,222.6c-62.7,14-177.8-59.2-191.8-121.9"/>
	<path class="st24" d="M29.2,220.4c17.4-0.3,44,25.5,44.3,42.9"/>
	<path class="st3" d="M29.2,220.4C43.3,160,155,90.5,215.4,104.5"/>
	<path class="st25" d="M29.2,220.4c24.8-41.1,20-91.7-4.8-119.7"/>
	<path class="st26" d="M29.2,220.4c37.8-37,150-35.7,187,2.2"/>
	<path class="st27" d="M231,133.2c-14.7,59.4-125.9,126.3-185.2,111.6"/>
	<path class="st28" d="M231,133.2c-5.5,57.5-100,135.6-157.5,130.1"/>
	<path class="st2" d="M231,133.2c-30,55-157.6,92.5-212.6,62.5"/>
	<path class="st29" d="M231,133.2c11.3,12.4,9.7,48.1-2.8,59.4"/>
	<path class="st30" d="M231,133.2c-8.8-2.6-18.2-19.8-15.5-28.7"/>
	<path class="st16" d="M231,133.2c14.7,36.5-18,113.2-54.5,127.8"/>
	<path class="st31" d="M231,133.2c15.8,28.5-3.2,94.9-31.7,110.7"/>
	<path class="st32" d="M231,133.2c14.9,20.8,6,74.5-14.8,89.4"/>
	<path class="st33" d="M232.9,163.9c-12,51.8-107.7,111.5-159.5,99.5"/>
	<path class="st31" d="M232.9,163.9c-4.6,47.7-83.2,112.3-130.9,107.7"/>
	<path class="st34" d="M232.9,163.9c4.8,6.7,2,23.9-4.7,28.7"/>
	<path class="st35" d="M232.9,163.9c-15.4-8.4-25.9-44-17.5-59.3"/>
	<path class="st36" d="M232.9,163.9c-54.3,29.1-179.5-8.8-208.5-63.1"/>
	<path class="st37" d="M232.9,163.9c8.4,15.1-1.7,50.4-16.8,58.8"/>
	<path class="st38" d="M232.9,163.9c-6.5-5.7-7.7-24.1-2-30.7"/>
	<path class="st39" d="M187.6,79.4c4.7,61.5-80.4,160.7-141.8,165.4"/>
	<path class="st40" d="M187.6,79.4C160.4,102,85.6,95.1,63.1,67.8"/>
	<path class="st41" d="M187.6,79.4c14,59.6-54.5,170-114.1,183.9"/>
	<path class="st4" d="M187.6,79.4c21.3,55.5-30,170.8-85.5,192.2"/>
	<path class="st42" d="M187.6,79.4c-28.7,29.5-115.9,30.9-145.5,2.2"/>
	<path class="st43" d="M187.6,79.4c30.8,14.5,55.2,82.4,40.6,113.2"/>
	<path class="st44" d="M187.6,79.4c10.6-0.5,27.3,14.5,27.9,25.1"/>
	<path class="st45" d="M187.6,79.4c34.1,38.6,27.4,147.5-11.1,181.7"/>
	<path class="st46" d="M187.6,79.4c-28.4,36.9-126.3,49.7-163.2,21.3"/>
	<path class="st4" d="M187.6,79.4c35.3,30.6,42.3,129.3,11.7,164.5"/>
	<path class="st47" d="M187.6,79.4c34.4,22.9,51.5,108.9,28.6,143.2"/>
	<path class="st39" d="M187.6,79.4c-3.5,59.9-98.5,144.5-158.4,141"/>
	<path class="st48" d="M187.6,79.4c19.4,2.1,45.5,34.4,43.4,53.8"/>
	<path class="st49" d="M187.6,79.4c26,7.8,53.2,58.5,45.4,84.5"/>
	<path class="st50" d="M125,49.7c-3.5,42.2-72,100.3-114.2,96.8"/>
	<path class="st51" d="M125,49.7c23.2,54.9-24.4,172-79.3,195.2"/>
	<path class="st52" d="M125,49.7c32.4,53.1,1.5,181.3-51.6,213.7"/>
	<path class="st53" d="M125,49.7c44.9,44,46.3,177.3,2.4,222.3"/>
	<path class="st54" d="M125,49.7c1.6,46.8-66.3,119.4-113.2,121"/>
	<path class="st3" d="M125,49.7c-7.3,37.1-73.9,81.8-111,74.5"/>
	<path class="st55" d="M125,49.7c39.8,49,26,182.1-23,221.9"/>
	<path class="st36" d="M125,49.7c-10.2,23-60,42.1-82.9,31.9"/>
	<path class="st56" d="M125,49.7c7.9,50.5-56.1,138.2-106.7,146.1"/>
	<path class="st57" d="M125,49.7c49.2,8,111.1,93.7,103.2,142.9"/>
	<path class="st58" d="M125,49.7c49.9,38.5,66.9,171.1,28.4,221"/>
	<path class="st59" d="M125,49.7c31.3,45.7,54.6,54.9,90.4,54.9"/>
	<path class="st60" d="M125,49.7c52.6,32,83.4,158.8,51.4,211.4"/>
	<path class="st13" d="M125,49.7c-9.9,30.3-70.3,61-100.7,51.1"/>
	<path class="st61" d="M125,49.7c53.7,24,98.3,140.6,74.3,194.3"/>
	<path class="st62" d="M125,49.7c52.8,16.4,107.5,120.1,91.1,173"/>
	<path class="st63" d="M125,49.7c15,53.3-42.5,155.8-95.8,170.8"/>
	<path class="st64" d="M125,49.7c30.3,71.5,35.9,61.1,105.9,83.6"/>
	<path class="st65" d="M125,49.7c44.4,1.3,109.2,69.8,107.9,114.2"/>
	<path class="st66" d="M125,49.7c18.5-6.6,56,11.3,62.5,29.7"/>
</g>
<g id="nodes">
	<circle class="st67" cx="125.8" cy="50.4" r="50"/>
	<circle class="st67" cx="188.3" cy="80.2" r="18.2"/>
	<circle class="st67" cx="233.7" cy="164.6" r="13.1"/>
	<circle class="st67" cx="231.7" cy="134" r="15.5"/>
	<circle class="st68" cx="30" cy="221.2" r="12"/>
	<circle class="st69" cx="216.9" cy="223.4" r="12.9"/>
	<circle class="st69" cx="200.1" cy="244.7" r="12.9"/>
	<circle class="st70" cx="25.1" cy="101.5" r="11.7"/>
	<circle class="st69" cx="177.2" cy="261.8" r="12.4"/>
	<circle class="st67" cx="216.2" cy="105.3" r="16.9"/>
	<circle class="st69" cx="154.2" cy="271.4" r="11.4"/>
	<circle class="st67" cx="229" cy="193.3" r="13.3"/>
	<circle class="st68" cx="19.1" cy="196.5" r="11.4"/>
	<circle class="st70" cx="42.9" cy="82.4" r="11.2"/>
	<circle class="st69" cx="102.8" cy="272.3" r="9.5"/>
	<circle class="st68" cx="14.8" cy="124.9" r="10.3"/>
	<circle class="st68" cx="12.6" cy="171.4" r="10.8"/>
	<circle class="st69" cx="128.2" cy="272.7" r="10.9"/>
	<circle class="st68" cx="74.2" cy="264.1" r="14.8"/>
	<circle class="st70" cx="63.8" cy="68.6" r="10.6"/>
	<circle class="st68" cx="46.5" cy="245.6" r="13.4"/>
	<circle class="st68" cx="11.6" cy="147.3" r="10.6"/>
</g>
<g id="node-labels">
	<text transform="matrix(1 0 0 1 86.6879 55.2021)" class="st71 st72">Africa</text>
	<text transform="matrix(1 0 0 1 167.3967 81.394)" class="st71 st73">America</text>
	<text transform="matrix(1 0 0 1 217.3599 165.3135)" class="st71 st74">Australia</text>
	<text transform="matrix(1 0 0 1 219.2125 134.8723)" class="st71 st75">China</text>
	<text transform="matrix(1 0 0 1 14.2088 222.0824)" class="st71 st76">Congress</text>
	<text transform="matrix(1 0 0 1 200.145 224.0984)" class="st71 st74">Covid-19</text>
	<text transform="matrix(1 0 0 1 163.9622 245.7587)" class="st71 st74">Democratic republic</text>
	<text transform="matrix(1 0 0 1 3.3673 102.3254)" class="st71 st76">Donald Trump</text>
	<text transform="matrix(1 0 0 1 167.5114 262.3182)" class="st71 st76">Ebola</text>
	<text transform="matrix(1 0 0 1 199.3088 106.8192)" class="st71 st77">Europe</text>
	<text transform="matrix(1 0 0 1 132.6399 272.2358)" class="st71 st76">Human rights</text>
	<text transform="matrix(1 0 0 1 219.537 194.0408)" class="st71 st74">India</text>
	<text transform="matrix(1 0 0 1 -18.8046 197.339)" class="st71 st76">International community</text>
	<text transform="matrix(1 0 0 1 26.9247 82.8755)" class="st71 st76">Joe Biden</text>
	<text transform="matrix(1 0 0 1 84.9264 272.8412)" class="st71 st76">New cases</text>
	<text transform="matrix(1 0 0 1 0.4875 125.2509)" class="st71 st78">Red Cross</text>
	<text transform="matrix(1 0 0 1 -9.1435 172.0392)" class="st71 st78">Security council</text>
	<text transform="matrix(1 0 0 1 102.8821 278.2247)" class="st71 st76">Sexual violence</text>
	<text transform="matrix(1 0 0 1 47.6854 265.0046)" class="st71 st75">Social media</text>
	<text transform="matrix(1 0 0 1 48.0486 68.9584)" class="st71 st78">US senator</text>
	<text transform="matrix(1 0 0 1 0.4611 246.6846)" class="st71 st74">World health organization</text>
	<text transform="matrix(1 0 0 1 2.0129 147.8843)" class="st71 st78">Zawya</text>
</g>
</svg>
