<?xml version="1.0" encoding="utf-8"?>
<!-- Generator: Adobe Illustrator 24.0.1, SVG Export Plug-In . SVG Version: 6.00 Build 0)  -->
<svg version="1.1" id="图层_1" xmlns="http://www.w3.org/2000/svg" xmlns:xlink="http://www.w3.org/1999/xlink" x="0px" y="0px"
	 viewBox="0 0 273.5 317" style="enable-background:new 0 0 273.5 317;" xml:space="preserve">
<style type="text/css">
	.st0{opacity:0.8;}
	.st1{fill:none;stroke:#FAA425;stroke-width:1.5;stroke-opacity:0.498;}
	.st2{fill:none;stroke:#0408FF;stroke-width:9.272865e-02;stroke-opacity:0.498;}
	.st3{fill:none;stroke:#42799E;stroke-width:9.824389e-02;stroke-opacity:0.498;}
	.st4{fill:none;stroke:#7F6086;stroke-width:4.860670e-02;stroke-opacity:0.498;}
	.st5{fill:none;stroke:#42799E;stroke-width:5.136432e-02;stroke-opacity:0.498;}
	.st6{fill:none;stroke:#5A259B;stroke-width:0.3437;stroke-opacity:0.498;}
	.st7{fill:none;stroke:#5A259B;stroke-width:0.3354;stroke-opacity:0.498;}
	.st8{fill:none;stroke:#7F6086;stroke-width:1.2068;stroke-opacity:0.498;}
	.st9{fill:none;stroke:#5A259B;stroke-width:0.6773;stroke-opacity:0.498;}
	.st10{fill:none;stroke:#42799E;stroke-width:0.7987;stroke-opacity:0.498;}
	.st11{fill:none;stroke:#98963A;stroke-width:1.000000e-02;stroke-opacity:0.498;}
	.st12{fill:none;stroke:#98963A;stroke-width:2.378811e-02;stroke-opacity:0.498;}
	.st13{fill:none;stroke:#FAB90D;stroke-width:2.654573e-02;stroke-opacity:0.498;}
	.st14{fill:none;stroke:#BDBD3E;stroke-width:5.412195e-02;stroke-opacity:0.498;}
	.st15{fill:none;stroke:#5A259B;stroke-width:6.239481e-02;stroke-opacity:0.498;}
	.st16{fill:none;stroke:#5A259B;stroke-width:1.171;stroke-opacity:0.498;}
	.st17{fill:none;stroke:#0408FF;stroke-width:7.618292e-02;stroke-opacity:0.498;}
	.st18{fill:none;stroke:#B04237;stroke-width:8.169816e-02;stroke-opacity:0.498;}
	.st19{fill:none;stroke:#FAB90D;stroke-width:3.3164;stroke-opacity:0.498;}
	.st20{fill:none;stroke:#0408FF;stroke-width:2.0837;stroke-opacity:0.498;}
	.st21{fill:none;stroke:#98963A;stroke-width:0.1396;stroke-opacity:0.498;}
	.st22{fill:none;stroke:#BDD225;stroke-width:0.1534;stroke-opacity:0.498;}
	.st23{fill:none;stroke:#98963A;stroke-width:0.1534;stroke-opacity:0.498;}
	.st24{fill:none;stroke:#B04237;stroke-width:0.1534;stroke-opacity:0.498;}
	.st25{fill:none;stroke:#5A259B;stroke-width:1.1654;stroke-opacity:0.498;}
	.st26{fill:none;stroke:#FAB90D;stroke-width:2;stroke-opacity:0.498;}
	.st27{fill:none;stroke:#D57D22;stroke-width:0.1865;stroke-opacity:0.498;}
	.st28{fill:none;stroke:#FAB90D;stroke-width:0.2003;stroke-opacity:0.498;}
	.st29{fill:none;stroke:#5A259B;stroke-width:1.4384;stroke-opacity:0.498;}
	.st30{fill:none;stroke:#98963A;stroke-width:0.2003;stroke-opacity:0.498;}
	.st31{fill:none;stroke:#98963A;stroke-width:0.2168;stroke-opacity:0.498;}
	.st32{fill:none;stroke:#D5693A;stroke-width:0.2223;stroke-opacity:0.498;}
	.st33{fill:none;stroke:#D57D22;stroke-width:0.2361;stroke-opacity:0.498;}
	.st34{fill:none;stroke:#BDD225;stroke-width:0.2389;stroke-opacity:0.498;}
	.st35{fill:none;stroke:#D5693A;stroke-width:0.2527;stroke-opacity:0.498;}
	.st36{fill:none;stroke:#42799E;stroke-width:1.3033;stroke-opacity:0.498;}
	.st37{fill:none;stroke:#D5693A;stroke-width:0.272;stroke-opacity:0.498;}
	.st38{fill:none;stroke:#98963A;stroke-width:0.2775;stroke-opacity:0.498;}
	.st39{fill:none;stroke:#80EB3E;stroke-width:0.2913;stroke-opacity:0.498;}
	.st40{fill:none;stroke:#B04237;stroke-width:2;stroke-opacity:0.498;}
	.st41{fill:none;stroke:#FAA425;stroke-width:0.2968;stroke-opacity:0.498;}
	.st42{fill:none;stroke:#D57D22;stroke-width:2.3485;stroke-opacity:0.498;}
	.st43{fill:none;stroke:#BDD225;stroke-width:0.2996;stroke-opacity:0.498;}
	.st44{fill:none;stroke:#98963A;stroke-width:0.3106;stroke-opacity:0.498;}
	.st45{fill:none;stroke:#BDD225;stroke-width:0.4154;stroke-opacity:0.498;}
	.st46{fill:none;stroke:#98963A;stroke-width:0.4429;stroke-opacity:0.498;}
	.st47{fill:none;stroke:#B04237;stroke-width:0.4926;stroke-opacity:0.498;}
	.st48{fill:none;stroke:#98963A;stroke-width:0.5202;stroke-opacity:0.498;}
	.st49{fill:none;stroke:#42799E;stroke-width:0.5339;stroke-opacity:0.498;}
	.st50{fill:none;stroke:#BDD225;stroke-width:0.556;stroke-opacity:0.498;}
	.st51{fill:none;stroke:#BDD225;stroke-width:5.1006;stroke-opacity:0.498;}
	.st52{fill:none;stroke:#7F6086;stroke-width:1.9845;stroke-opacity:0.498;}
	.st53{fill:none;stroke:#BDD225;stroke-width:5.0261;stroke-opacity:0.498;}
	.st54{fill:none;stroke:#80EB3E;stroke-width:0.6663;stroke-opacity:0.498;}
	.st55{fill:none;stroke:#D57D22;stroke-width:0.6718;stroke-opacity:0.498;}
	.st56{fill:none;stroke:#BDBD3E;stroke-width:0.6773;stroke-opacity:0.498;}
	.st57{fill:none;stroke:#D57D22;stroke-width:0.738;stroke-opacity:0.498;}
	.st58{fill:none;stroke:#D57D22;stroke-width:4.2319;stroke-opacity:0.498;}
	.st59{fill:none;stroke:#B04237;stroke-width:0.7546;stroke-opacity:0.498;}
	.st60{fill:none;stroke:#98963A;stroke-width:0.7683;stroke-opacity:0.498;}
	.st61{fill:none;stroke:#D57D22;stroke-width:0.7849;stroke-opacity:0.498;}
	.st62{fill:none;stroke:#BDBD3E;stroke-width:0.8014;stroke-opacity:0.498;}
	.st63{fill:none;stroke:#7F4C9E;stroke-width:2.4505;stroke-opacity:0.498;}
	.st64{fill:none;stroke:#80EB3E;stroke-width:0.8731;stroke-opacity:0.498;}
	.st65{fill:none;stroke:#257F48;stroke-width:0.8731;stroke-opacity:0.498;}
	.st66{fill:none;stroke:#42799E;stroke-width:0.8814;stroke-opacity:0.498;}
	.st67{fill:none;stroke:#B04237;stroke-width:0.8842;stroke-opacity:0.498;}
	.st68{fill:none;stroke:#B04237;stroke-width:0.8869;stroke-opacity:0.498;}
	.st69{fill:none;stroke:#80EB3E;stroke-width:0.8924;stroke-opacity:0.498;}
	.st70{fill:none;stroke:#B04237;stroke-width:0.9117;stroke-opacity:0.498;}
	.st71{fill:none;stroke:#7F6086;stroke-width:0.9173;stroke-opacity:0.498;}
	.st72{fill:none;stroke:#FAA425;stroke-width:0.92;stroke-opacity:0.498;}
	.st73{fill:none;stroke:#D5693A;stroke-width:0.9255;stroke-opacity:0.498;}
	.st74{fill:none;stroke:#5A259B;stroke-width:2.8531;stroke-opacity:0.498;}
	.st75{fill:none;stroke:#42799E;stroke-width:1.0579;stroke-opacity:0.498;}
	.st76{fill:none;stroke:#98963A;stroke-width:1.0689;stroke-opacity:0.498;}
	.st77{fill:none;stroke:#D5693A;stroke-width:1.2013;stroke-opacity:0.498;}
	.st78{fill:none;stroke:#7F6086;stroke-width:7.7396;stroke-opacity:0.498;}
	.st79{fill:none;stroke:#D57D22;stroke-width:1.262;stroke-opacity:0.498;}
	.st80{fill:none;stroke:#D57D22;stroke-width:5.9279;stroke-opacity:0.498;}
	.st81{fill:none;stroke:#257F48;stroke-width:2;stroke-opacity:0.498;}
	.st82{fill:none;stroke:#B04237;stroke-width:1.3723;stroke-opacity:0.498;}
	.st83{fill:none;stroke:#98963A;stroke-width:1.3916;stroke-opacity:0.498;}
	.st84{fill:none;stroke:#BDBD3E;stroke-width:1.4688;stroke-opacity:0.498;}
	.st85{fill:none;stroke:#FAA425;stroke-width:1.5322;stroke-opacity:0.498;}
	.st86{fill:none;stroke:#D57D22;stroke-width:6.609;stroke-opacity:0.498;}
	.st87{fill:none;stroke:#98963A;stroke-width:1.6535;stroke-opacity:0.498;}
	.st88{fill:none;stroke:#42799E;stroke-width:4.4415;stroke-opacity:0.498;}
	.st89{fill:none;stroke:#B04237;stroke-width:1.7832;stroke-opacity:0.498;}
	.st90{fill:none;stroke:#BDD225;stroke-width:1.7859;stroke-opacity:0.498;}
	.st91{fill:none;stroke:#98963A;stroke-width:1.8714;stroke-opacity:0.498;}
	.st92{fill:none;stroke:#98963A;stroke-width:2.1306;stroke-opacity:0.498;}
	.st93{fill:none;stroke:#FAA425;stroke-width:12.5213;stroke-opacity:0.498;}
	.st94{fill:none;stroke:#98963A;stroke-width:2.3236;stroke-opacity:0.498;}
	.st95{fill:none;stroke:#42799E;stroke-width:2.3292;stroke-opacity:0.498;}
	.st96{fill:none;stroke:#D57D22;stroke-width:6.2202;stroke-opacity:0.498;}
	.st97{fill:none;stroke:#BDBD3E;stroke-width:2.7731;stroke-opacity:0.498;}
	.st98{fill:none;stroke:#257F48;stroke-width:2.9303;stroke-opacity:0.498;}
	.st99{fill:none;stroke:#BDD225;stroke-width:2.9414;stroke-opacity:0.498;}
	.st100{fill:none;stroke:#D57D22;stroke-width:7.1798;stroke-opacity:0.498;}
	.st101{fill:none;stroke:#BDD225;stroke-width:16.8012;stroke-opacity:0.498;}
	.st102{fill:none;stroke:#7F4C9E;stroke-width:3.2006;stroke-opacity:0.498;}
	.st103{fill:none;stroke:#7F6086;stroke-width:3.2254;stroke-opacity:0.498;}
	.st104{fill:none;stroke:#D57D22;stroke-width:9.0385;stroke-opacity:0.498;}
	.st105{fill:none;stroke:#BDD225;stroke-width:14.6888;stroke-opacity:0.498;}
	.st106{fill:none;stroke:#42799E;stroke-width:4.9682;stroke-opacity:0.498;}
	.st107{fill:none;stroke:#BDD225;stroke-width:6.0547;stroke-opacity:0.498;}
	.st108{fill:none;stroke:#7F6086;stroke-width:20;stroke-opacity:0.498;}
	.st109{fill:none;stroke:#FAB90D;stroke-width:12.3559;stroke-opacity:0.498;}
	.st110{fill:none;stroke:#FAB90D;stroke-width:1.4964;stroke-opacity:0.498;}
	.st111{fill:#FFC274;fill-opacity:0.8;stroke:#000000;stroke-width:1.000000e-02;stroke-opacity:0.8;}
	.st112{fill:#98AAC9;fill-opacity:0.8;stroke:#000000;stroke-width:1.000000e-02;stroke-opacity:0.8;}
	.st113{fill:#BDCE9C;fill-opacity:0.8;stroke:#000000;stroke-width:1.000000e-02;stroke-opacity:0.8;}
	.st114{fill:#FA903E;fill-opacity:0.8;stroke:#000000;stroke-width:1.000000e-02;stroke-opacity:0.8;}
	.st115{fill:#B04237;fill-opacity:0.8;stroke:#000000;stroke-width:1.000000e-02;stroke-opacity:0.8;}
	.st116{font-family:'ArialMT';}
	.st117{font-size:9px;}
	.st118{font-size:6px;}
	.st119{font-size:7px;}
	.st120{font-size:10px;}
	.st121{font-size:12px;}
	.st122{font-size:8px;}
	.st123{font-size:30px;}
</style>
<g id="edges" class="st0">
	<path class="st1" d="M140.4,49.7c14.3,65.8,66,111.1,119.1,137.9"/>
	<path class="st2" d="M126.9,297.4c-17.9,8.3-57.2-6-65.5-23.9"/>
	<path class="st3" d="M164,301.1c-17.1,12.8-62.1,6.4-74.9-10.7"/>
	<path class="st4" d="M226.4,101.5c10.3,65.2-72,178.6-137.3,188.9"/>
	<path class="st5" d="M89.1,290.4c21.4-19.6,83-17,102.7,4.4"/>
	<path class="st6" d="M126.9,297.4C69.4,269.8,24.5,142.2,52.1,84.7"/>
	<path class="st7" d="M126.9,297.4c-56.1-34.7-88.2-171-53.4-227.1"/>
	<path class="st8" d="M140.4,49.7c21.1,59.6-36.7,180.5-96.3,201.6"/>
	<path class="st9" d="M126.9,297.4C70,276.9,15.2,160.7,35.7,103.7"/>
	<path class="st10" d="M126.9,297.4c8.2-6.7,30.4-4.4,37.1,3.7"/>
	<path class="st11" d="M164,301.1c-57.7,3-148.8-78.9-151.8-136.6"/>
	<path class="st12" d="M52.1,84.7c70.8-4.1,183.1,95.9,187.2,166.7"/>
	<path class="st13" d="M226.4,101.5c8.3,0.8,19.5,14.5,18.7,22.8"/>
	<path class="st14" d="M257.2,155.5c14.8,41-24.4,124.6-65.4,139.4"/>
	<path class="st15" d="M89.1,290.4C41.1,263.8,9,151.8,35.7,103.7"/>
	<path class="st16" d="M126.9,297.4C72.5,286,7.9,187.2,19.3,132.7"/>
	<path class="st17" d="M44.1,251.4c25.8-7.4,75.5,20.3,82.8,46.1"/>
	<path class="st18" d="M12.2,164.5c-6.6-31.1,30.2-87.6,61.3-94.2"/>
	<path class="st19" d="M140.4,49.7c31.4,44.4,31.4,42.8,86,51.8"/>
	<path class="st20" d="M126.9,297.4c-13.8-20.5-21.7-19.3-37.8-7"/>
	<path class="st21" d="M164,301.1c-62.6-4.7-149.5-105.8-144.8-168.4"/>
	<path class="st21" d="M164,301.1c-42.2,12.9-125-31-137.9-73.2"/>
	<path class="st22" d="M255.7,218.4c-20.9-16.7-27.3-73.1-10.6-94"/>
	<path class="st23" d="M191.8,294.8c-46.5,19.7-145.9-20.4-165.7-66.9"/>
	<path class="st24" d="M35.7,103.7c-0.5-7.1,9.3-18.5,16.4-19.1"/>
	<path class="st25" d="M126.9,297.4C77.4,293.8,8.6,214.1,12.2,164.5"/>
	<path class="st26" d="M140.4,49.7c34.3,57.4,48.4,67.7,104.8,74.6"/>
	<path class="st27" d="M203.4,77.5C175.1,116.3,74.5,132,35.7,103.7"/>
	<path class="st28" d="M203.4,77.5c9.4,0.2,23.2,14.7,23,24.1"/>
	<path class="st29" d="M126.9,297.4c-21.6-74.3-26.3-79.5-111.4-100.2"/>
	<path class="st30" d="M73.5,70.4c69.4,3.1,168.9,111.7,165.8,181.1"/>
	<path class="st31" d="M35.7,103.7c70.3-11.2,192.4,77.4,203.6,147.7"/>
	<path class="st32" d="M257.2,155.5c-40,56.7-184.9,81.7-241.6,41.8"/>
	<path class="st33" d="M203.4,77.5c-28.8,31.7-119.6,36-151.3,7.2"/>
	<path class="st34" d="M203.4,77.5c41.2,45.8,34.2,176.2-11.6,217.4"/>
	<path class="st35" d="M257.2,155.5c-52.1,43-194.9,29.4-237.9-22.7"/>
	<path class="st36" d="M255.7,218.4c-18.9,47.7-118.9,90.9-166.6,72"/>
	<path class="st37" d="M257.2,155.5c-47.2,50.8-194.2,56.3-245,9.1"/>
	<path class="st38" d="M164,301.1C113.5,310,24.5,247.7,15.6,197.2"/>
	<path class="st39" d="M164,301.1c5.1-25,50.3-54.8,75.3-49.7"/>
	<path class="st40" d="M73.5,70.4c13.8,37-21,113.1-57.9,126.9"/>
	<path class="st41" d="M257.2,155.5c-8.6-3.8-15.9-22.5-12.1-31.1"/>
	<path class="st42" d="M140.4,49.7C131.1,67.2,91,79.6,73.5,70.4"/>
	<path class="st43" d="M226.4,101.5c29.2,17.5,46.8,87.6,29.3,116.9"/>
	<path class="st44" d="M255.7,218.4c-66.1,6.8-175.4-82-182.2-148"/>
	<path class="st45" d="M203.4,77.5c36.9,52.6,13.2,186.8-39.4,223.7"/>
	<path class="st46" d="M255.7,218.4C188.2,232.4,66,152.2,52,84.7"/>
	<path class="st47" d="M73.5,70.4c22,41-6.4,135.5-47.4,157.5"/>
	<path class="st48" d="M19.3,132.7c67.7-20.2,199.7,51,220,118.7"/>
	<path class="st49" d="M89.1,290.4c22.5-28.1,98.5-36.5,126.7-14"/>
	<path class="st50" d="M203.4,77.5c42.3,37.3,49.7,156.7,12.4,198.9"/>
	<path class="st51" d="M140.4,49.7c59.3,38.7,90.2,185.8,51.4,245.1"/>
	<path class="st52" d="M140.4,49.7c29,60.5-18.4,194.8-79,223.8"/>
	<path class="st53" d="M140.4,49.7c55,45.5,69.2,196.4,23.6,251.4"/>
	<path class="st54" d="M255.7,218.4c2.5,28.1-35.9,74-63.9,76.5"/>
	<path class="st55" d="M203.4,77.5c-25.8,47.9-136.3,81.1-184.2,55.3"/>
	<path class="st56" d="M257.2,155.5c10.5,47.8-45.4,135.2-93.2,145.7"/>
	<path class="st57" d="M203.4,77.5c-20.8,55.7-135.6,107.9-191.2,87.1"/>
	<path class="st58" d="M52.1,84.7c10.7-24.6,63.6-45.6,88.3-34.9"/>
	<path class="st59" d="M12.2,164.5c-4.9-7.8-0.7-26.9,7.1-31.8"/>
	<path class="st60" d="M255.7,218.4c-66.9,21.1-199-47.7-220-114.6"/>
	<path class="st60" d="M12.2,164.5c62.8-28,199.1,24.1,227.1,86.9"/>
	<path class="st61" d="M203.4,77.5C189.8,139,77.1,210.8,15.6,197.2"/>
	<path class="st62" d="M257.2,155.5c15.9,32.5-8.9,105-41.4,120.9"/>
	<path class="st63" d="M257.2,155.5C250.6,216.1,149.7,297,89.1,290.4"/>
	<path class="st64" d="M255.7,218.4c-1.8,34.9-56.8,84.5-91.7,82.8"/>
	<path class="st65" d="M191.8,294.8c0.8-18.2,29.3-44.2,47.5-43.4"/>
	<path class="st66" d="M89.1,290.4c22.2-37.8,112.3-61.2,150.2-39"/>
	<path class="st67" d="M19.3,132.7c20.4,17.7,24.5,74.8,6.9,95.2"/>
	<path class="st68" d="M12.2,164.5c15.5,9.9,23.8,47.9,13.9,63.4"/>
	<path class="st69" d="M239.3,251.4c0.3,9.7-13.8,24.7-23.5,25"/>
	<path class="st70" d="M12.2,164.5c7.2,5.9,9.2,25.5,3.4,32.7"/>
	<path class="st71" d="M226.4,101.5c19.3,59.1-40.4,176.6-99.5,195.9"/>
	<path class="st72" d="M226.4,101.5c16.9,4.6,35.4,37,30.8,53.9"/>
	<path class="st73" d="M257.2,155.5C202,182.3,79,139.9,52.1,84.7"/>
	<path class="st74" d="M126.9,297.4c-24.4-33.5-41.4-70.9-100.8-69.5"/>
	<path class="st75" d="M191.8,294.8c-12.5,13.5-51.4,15-64.9,2.6"/>
	<path class="st76" d="M15.6,197.2c55.6-33.9,189.8-1.4,223.7,54.2"/>
	<path class="st77" d="M257.2,155.5c-54.6,34-187.5,2.9-221.5-51.7"/>
	<path class="st78" d="M140.4,49.7c37.9,58.4,7.1,202.8-51.2,240.7"/>
	<path class="st79" d="M203.4,77.5C198,143,91.7,233.3,26.1,227.9"/>
	<path class="st80" d="M35.7,103.7c10.1-31.7,72.9-64.1,104.7-54"/>
	<path class="st81" d="M255.7,218.4c-23.6-3.3-59.4,9.7-39.9,58"/>
	<path class="st82" d="M15.6,197.2c8.2,4,14.6,22.4,10.5,30.7"/>
	<path class="st83" d="M255.7,218.4c-59.5,37.9-205.6,5.6-243.6-53.8"/>
	<path class="st84" d="M257.2,155.5c15.6,22.8,4.9,80.3-17.9,96"/>
	<path class="st85" d="M203.4,77.5c10.3,42.6,19.4,46.9,53.8,78"/>
	<path class="st86" d="M140.4,49.7c-2.7,48.6-79.6,117.5-128.2,114.8"/>
	<path class="st87" d="M255.7,218.4c-52.3,43.8-196.4,31.1-240.2-21.2"/>
	<path class="st88" d="M126.9,297.4c13.3-31.7,80.7-59.3,112.4-46"/>
	<path class="st89" d="M15.6,197.2c-12.2-13.6-10-52.3,3.7-64.5"/>
	<path class="st90" d="M203.4,77.5c42,27.6,63.5,132,35.9,174"/>
	<path class="st91" d="M255.7,218.4c-64.4,30.2-206.3-21.2-236.5-85.6"/>
	<path class="st92" d="M26.1,227.9c47.3-37.9,175.2-23.8,213.2,23.5"/>
	<path class="st93" d="M140.4,49.7c16.7,44.6,50,102.2,116.8,105.8"/>
	<path class="st94" d="M255.7,218.4c-44,47.8-181.8,53.5-229.6,9.5"/>
	<path class="st95" d="M126.9,297.4c13.6-22,66.9-34.6,88.9-21"/>
	<path class="st96" d="M19.3,132.7c7.6-40.8,80.3-90.6,121.1-83"/>
	<path class="st97" d="M255.7,218.4c-12.3-12.9-11.4-50.6,1.5-62.9"/>
	<path class="st98" d="M255.7,218.4c3.8,28.8,0.1,31.5-16.4,33"/>
	<path class="st99" d="M203.4,77.5c38.6,17.7,70,102.3,52.3,140.9"/>
	<path class="st100" d="M15.6,197.2C11,142.8,85.9,54.3,140.4,49.7"/>
	<path class="st101" d="M140.4,49.7c56.8,10.7,126,111.8,115.4,168.6"/>
	<path class="st102" d="M257.2,155.5c2.3,54.4-75.8,139.6-130.3,142"/>
	<path class="st103" d="M203.4,77.5c28.7,59.3-17.2,191.3-76.5,220"/>
	<path class="st104" d="M26.1,227.9C13.3,169.4,81.9,62.5,140.4,49.7"/>
	<path class="st105" d="M239.3,251.4c-60.1-20.5-119.5-141.6-98.9-201.7"/>
	<path class="st106" d="M255.7,218.4c-28.2,6.8-101.8,2.7-128.8,79"/>
	<path class="st107" d="M140.4,49.7C200.8,80,246.1,216,215.8,276.4"/>
	<path class="st108" d="M126.9,297.4C80.1,245.2,88.1,96.6,140.4,49.7"/>
	<path class="st109" d="M203.4,77.5c-18.2,7.1-56-9.6-63.1-27.7"/>
	<path class="st110" d="M138.8,55.4c35.9-6,98.7,38.8,104.8,74.6"/>
</g>
<g id="nodes">
	<circle class="st111" cx="203.4" cy="77.5" r="15"/>
	
		<ellipse transform="matrix(3.327791e-02 -0.9994 0.9994 3.327791e-02 -213.9918 325.7645)" class="st112" cx="61.4" cy="273.5" rx="10.3" ry="10.3"/>
	<circle class="st111" cx="226.4" cy="101.5" r="11.2"/>
	
		<ellipse transform="matrix(0.1602 -0.9871 0.9871 0.1602 -0.8385 435.8145)" class="st113" cx="255.7" cy="218.4" rx="17.4" ry="17.4"/>
	
		<ellipse transform="matrix(0.1602 -0.9871 0.9871 0.1602 62.509 384.4706)" class="st114" cx="257.2" cy="155.5" rx="15.7" ry="15.7"/>
	<circle class="st113" cx="191.8" cy="294.8" r="11.6"/>
	<circle class="st112" cx="126.9" cy="297.4" r="19.4"/>
	<circle class="st113" cx="164" cy="301.1" r="11.8"/>
	<circle class="st115" cx="12.2" cy="164.5" r="12.6"/>
	<circle class="st115" cx="73.5" cy="70.4" r="10.8"/>
	<circle class="st111" cx="245.1" cy="124.4" r="10.3"/>
	<circle class="st112" cx="89.1" cy="290.4" r="13.4"/>
	<circle class="st115" cx="15.6" cy="197.2" r="13"/>
	<circle class="st115" cx="19.3" cy="132.7" r="12.6"/>
	<circle class="st115" cx="26.1" cy="227.9" r="14.2"/>
	<circle class="st115" cx="35.7" cy="103.7" r="11.8"/>
	<circle class="st115" cx="52.1" cy="84.7" r="11.3"/>
	<circle class="st114" cx="259.5" cy="187.7" r="10"/>
	<circle class="st113" cx="239.3" cy="251.4" r="15.7"/>
	<circle class="st111" cx="140.4" cy="49.7" r="50"/>
	<circle class="st112" cx="44.1" cy="251.4" r="10"/>
	<circle class="st113" cx="215.8" cy="276.4" r="12.5"/>
</g>
<g id="node-labels">
	<text transform="matrix(1 0 0 1 186.9153 81.1049)" class="st116 st117">America</text>
	<text transform="matrix(1 0 0 1 40.7135 276.6133)" class="st116 st118">Bernie Sanders</text>
	<text transform="matrix(1 0 0 1 217.27 104.8266)" class="st116 st119">China</text>
	<text transform="matrix(1 0 0 1 234.3487 222.7353)" class="st116 st120">Congress</text>
	<text transform="matrix(1 0 0 1 239.1891 159.1294)" class="st116 st117">Covid-19</text>
	<text transform="matrix(1 0 0 1 176.6286 293.8569)" class="st116 st119">Democrat</text>
	<text transform="matrix(1 0 0 1 97.2523 312.9265)" class="st116 st121">Donald trump</text>
	<text transform="matrix(1 0 0 1 130.8788 301.9978)" class="st116 st119">Federal government</text>
	<text transform="matrix(1 0 0 1 -8.2653 167.9976)" class="st116 st122">Health care</text>
	<text transform="matrix(1 0 0 1 50.9879 73.4518)" class="st116 st118">Health insurance</text>
	<text transform="matrix(1 0 0 1 238.6244 127.4699)" class="st116 st118">India</text>
	<text transform="matrix(1 0 0 1 71.7884 293.8565)" class="st116 st122">Joe biden</text>
	<text transform="matrix(1 0 0 1 -0.4285 200.6798)" class="st116 st122">Medicaid</text>
	<text transform="matrix(1 0 0 1 2.8045 136.2003)" class="st116 st122">Medicare</text>
	<text transform="matrix(1 0 0 1 2.6134 231.5672)" class="st116 st117">Obamacare</text>
	<text transform="matrix(1 0 0 1 18.973 107.0201)" class="st116 st119">Prevention</text>
	<text transform="matrix(1 0 0 1 32.056 87.9605)" class="st116 st119">Public health</text>
	<text transform="matrix(1 0 0 1 241.83 190.7634)" class="st116 st118">Racial Matter</text>
	<text transform="matrix(1 0 0 1 216.7905 255.4799)" class="st116 st117">Republican</text>
	<text transform="matrix(1 0 0 1 105.344 57.2996)" class="st116 st123">State</text>
	<text transform="matrix(1 0 0 1 28.2603 254.4665)" class="st116 st118">the Clintons</text>
	<text transform="matrix(1 0 0 1 196.3578 279.6715)" class="st116 st119">White house</text>
</g>
</svg>
